<?xml version="1.0" encoding="utf-8"?>
<!-- Generator: Adobe Illustrator 27.9.0, SVG Export Plug-In . SVG Version: 6.00 Build 0)  -->
<svg version="1.1" id="Layer_1" xmlns="http://www.w3.org/2000/svg" xmlns:xlink="http://www.w3.org/1999/xlink" x="0px" y="0px"
	 viewBox="0 0 397 71" style="enable-background:new 0 0 397 71;" xml:space="preserve">
<style type="text/css">
	.st0{fill:url(#SVGID_1_);}
	.st1{fill:url(#SVGID_00000129188838794166970110000018083171304955879814_);}
	.st2{fill:url(#SVGID_00000031894553897220409470000003088144616273679039_);}
	.st3{fill:url(#SVGID_00000022556420888792008610000007723266443777905819_);}
	.st4{fill:url(#SVGID_00000122719463277718117250000010047029743719055800_);}
	.st5{fill:url(#SVGID_00000034084486483193239330000011283481069898759062_);}
</style>
<g>
	<g>
		<g>
			<path d="M119.9,17.9h-4.8c-0.4,0-0.8,0.3-0.8,0.5l-9.1,20.3h-0.3l-9.1-20.3c-0.1-0.3-0.4-0.5-0.8-0.5h-4.8
				c-0.8,0-1.1,0.6-0.8,1.2L104,51c0.2,0.3,0.4,0.5,0.8,0.5h0.5c0.4,0,0.7-0.3,0.8-0.5l14.6-31.8C121,18.5,120.6,17.9,119.9,17.9z"
				/>
			<path d="M152.4,17.9h-20.6c-0.5,0-0.8,0.4-0.8,0.8v3.9c0,0.5,0.4,0.8,0.8,0.8h7.2v26.6c0,0.5,0.4,0.8,0.8,0.8h4.4
				c0.5,0,0.8-0.4,0.8-0.8V23.5h7.2c0.5,0,0.8-0.4,0.8-0.8v-3.9C153.3,18.3,152.9,17.9,152.4,17.9z"/>
			<path d="M189.4,28c0-5.6-4.6-10.2-10.3-10.2h-13.5c-0.5,0-0.8,0.4-0.8,0.8V50c0,0.5,0.4,0.8,0.8,0.8h4.3c0.5,0,0.8-0.4,0.8-0.8
				V38h5.3l6.3,12.6c0.1,0.2,0.3,0.4,0.8,0.4h4.9c0.8,0,1.1-0.8,0.8-1.4l-6.4-12C186.5,35.9,189.4,32.5,189.4,28z M178.6,33h-7.7
				v-9.4h7.7c2.5,0,4.7,2,4.7,4.6C183.3,30.8,181.1,33,178.6,33z"/>
			<path d="M226.2,17.9h-4.5c-0.5,0-0.8,0.4-0.8,0.8v19.3c0,3.9-2.8,7.1-6.9,7.1c-4.2,0-6.9-3.1-6.9-7.2V18.8c0-0.5-0.4-0.8-0.8-0.8
				h-4.6c-0.5,0-0.8,0.4-0.8,0.8v19.7c0,7.2,5.8,13.1,13.2,13.1c7.5,0,13.2-5.9,13.2-13.1V18.8C227.2,18.3,226.7,17.9,226.2,17.9z"
				/>
		</g>
	</g>
	<g>
		<radialGradient id="SVGID_1_" cx="2.4694" cy="64.6818" r="102.4172" gradientUnits="userSpaceOnUse">
			<stop  offset="0" style="stop-color:#FF00FF"/>
			<stop  offset="1" style="stop-color:#00FFFF"/>
		</radialGradient>
		<path class="st0" d="M23.9,36.9h-7.7c0.2,2.3,0.8,4.6,1.8,6.7c1.1,2.3,2.5,4.4,4.3,6.2c1.8,1.8,3.9,3.3,6.2,4.3
			c2.1,1,4.3,1.6,6.7,1.8v-7.7c-2.8-0.5-5.4-1.8-7.5-3.8C25.7,42.3,24.3,39.7,23.9,36.9z"/>
		
			<radialGradient id="SVGID_00000054951121666289661200000016023506348858521263_" cx="2.4694" cy="64.6818" r="102.4172" gradientUnits="userSpaceOnUse">
			<stop  offset="0" style="stop-color:#FF00FF"/>
			<stop  offset="1" style="stop-color:#00FFFF"/>
		</radialGradient>
		<path style="fill:url(#SVGID_00000054951121666289661200000016023506348858521263_);" d="M46.6,34.7c0-5.1-4.1-9.2-9.2-9.2
			s-9.2,4.1-9.2,9.2c0,5.1,4.1,9.2,9.2,9.2S46.6,39.8,46.6,34.7z M37.4,37.9c-1.8,0-3.2-1.4-3.2-3.2c0-1.8,1.4-3.2,3.2-3.2
			c1.8,0,3.2,1.4,3.2,3.2C40.5,36.5,39.1,37.9,37.4,37.9z"/>
		
			<radialGradient id="SVGID_00000020369139102949997860000010866156533325438597_" cx="2.4694" cy="64.6818" r="102.4172" gradientUnits="userSpaceOnUse">
			<stop  offset="0" style="stop-color:#FF00FF"/>
			<stop  offset="1" style="stop-color:#00FFFF"/>
		</radialGradient>
		<path style="fill:url(#SVGID_00000020369139102949997860000010866156533325438597_);" d="M27.7,25.1c2.1-2.1,4.6-3.4,7.5-3.8v-7.7
			c-2.3,0.2-4.6,0.8-6.7,1.8c-2.3,1.1-4.4,2.5-6.2,4.3h0c-1.8,1.8-3.3,3.9-4.3,6.2c-1,2.1-1.6,4.3-1.8,6.7h7.7
			C24.3,29.7,25.7,27.1,27.7,25.1z"/>
		
			<radialGradient id="SVGID_00000013178212681985046460000016866598728571504538_" cx="2.4694" cy="64.6818" r="102.4172" gradientUnits="userSpaceOnUse">
			<stop  offset="0" style="stop-color:#FF00FF"/>
			<stop  offset="1" style="stop-color:#00FFFF"/>
		</radialGradient>
		<path style="fill:url(#SVGID_00000013178212681985046460000016866598728571504538_);" d="M37.4,2C19.3,2,4.7,16.6,4.7,34.7
			s14.6,32.7,32.7,32.7s32.7-14.6,32.7-32.7S55.4,2,37.4,2z M65,36.9h-2.1c-0.2,2.7-0.9,5.3-1.9,7.8c-1.3,3.1-3.1,5.8-5.5,8.2
			c-2.4,2.4-5.1,4.2-8.2,5.5c-2.5,1.1-5.1,1.7-7.8,1.9v2.1c0,0.8-0.6,1.4-1.4,1.4h-1.5c-0.8,0-1.4-0.6-1.4-1.4v-2.1
			c-2.7-0.2-5.3-0.9-7.8-1.9c-3.1-1.3-5.8-3.1-8.2-5.5c-2.4-2.4-4.2-5.1-5.5-8.2c-1.1-2.5-1.7-5.1-1.9-7.8H9.7
			c-0.8,0-1.4-0.6-1.4-1.4v-1.5c0-0.8,0.6-1.4,1.4-1.4h2.1c0.2-2.7,0.9-5.3,1.9-7.8c1.3-3.1,3.1-5.8,5.5-8.2
			c2.4-2.4,5.1-4.2,8.2-5.5c2.5-1.1,5.1-1.7,7.8-1.9V7c0-0.8,0.6-1.4,1.4-1.4h1.5c0.8,0,1.4,0.6,1.4,1.4v2.1
			c2.7,0.2,5.3,0.9,7.8,1.9c3.1,1.3,5.8,3.1,8.2,5.5c2.4,2.4,4.2,5.1,5.5,8.2c1.1,2.5,1.7,5.1,1.9,7.8H65c0.8,0,1.4,0.6,1.4,1.4v1.5
			C66.5,36.2,65.8,36.9,65,36.9z"/>
		
			<radialGradient id="SVGID_00000088822205033056364360000009719219884240945824_" cx="2.4694" cy="64.6818" r="102.4172" gradientUnits="userSpaceOnUse">
			<stop  offset="0" style="stop-color:#FF00FF"/>
			<stop  offset="1" style="stop-color:#00FFFF"/>
		</radialGradient>
		<path style="fill:url(#SVGID_00000088822205033056364360000009719219884240945824_);" d="M52.4,19.7c-1.8-1.8-3.9-3.3-6.2-4.3
			c-2.1-1-4.3-1.6-6.7-1.8v7.7c2.8,0.5,5.4,1.8,7.5,3.8c2.1,2.1,3.4,4.6,3.8,7.5h7.7c-0.2-2.3-0.8-4.6-1.8-6.7
			C55.7,23.6,54.2,21.5,52.4,19.7z"/>
		
			<radialGradient id="SVGID_00000084523762291344125270000001947004111998862502_" cx="2.4694" cy="64.6818" r="102.4172" gradientUnits="userSpaceOnUse">
			<stop  offset="0" style="stop-color:#FF00FF"/>
			<stop  offset="1" style="stop-color:#00FFFF"/>
		</radialGradient>
		<path style="fill:url(#SVGID_00000084523762291344125270000001947004111998862502_);" d="M47,44.3c-2.1,2.1-4.6,3.4-7.5,3.8v7.7
			c2.3-0.2,4.6-0.8,6.7-1.8c2.3-1.1,4.4-2.5,6.2-4.3c1.8-1.8,3.3-3.9,4.3-6.2c1-2.1,1.6-4.3,1.8-6.7h-7.7
			C50.4,39.7,49.1,42.3,47,44.3z"/>
	</g>
	<g>
		<path d="M243.5,43.4l2.1-1.3c1.1,3.9,4.4,6.6,9.8,6.6c5.5,0,8.2-2.8,8.2-6.5c0-3.9-3.5-5.4-8.4-7c-5.5-1.8-10.4-3.3-10.4-9
			c0-5.4,4.3-8.8,9.9-8.8c5.4,0,8.9,3.1,10.5,6.9l-2.1,1.2c-1.2-2.9-3.7-5.6-8.4-5.6c-4.5,0-7.4,2.7-7.4,6.3c0,3.9,3.3,5.1,8,6.7
			c5.8,1.9,10.8,3.7,10.8,9.4c0,5.4-4.2,9-10.7,9C249.3,51.1,245,48.1,243.5,43.4z"/>
		<path d="M270.8,39c0-6.9,5.2-12.2,12.3-12.2c4.6,0,8.5,2.3,10.2,6l-1.9,1.1c-1.4-2.9-4.5-4.9-8.3-4.9c-5.6,0-9.9,4.4-9.9,9.9
			s4.2,9.9,9.9,9.9c3.8,0,6.9-2,8.4-4.9l2,1.2c-1.9,3.6-5.8,5.9-10.4,5.9C276,51.1,270.8,45.9,270.8,39z"/>
		<path d="M296.8,39c0-6.9,5.5-12.2,12.3-12.2c6.8,0,12.2,5.3,12.2,12.2c0,6.9-5.5,12.2-12.2,12.2C302.2,51.1,296.8,45.9,296.8,39z
			 M318.9,39c0-5.6-4.3-9.9-9.8-9.9s-9.9,4.4-9.9,9.9s4.3,9.9,9.9,9.9S318.9,44.5,318.9,39z"/>
		<path d="M351.3,39c0,6.9-5.4,12.2-12.1,12.2c-4.5,0-8.1-2.3-10-5.9V60h-2.3V27.3h2.3v5.4c1.9-3.6,5.5-5.9,10-5.9
			C345.9,26.8,351.3,32.1,351.3,39z M349,39c0-5.6-4.3-9.9-9.9-9.9s-9.9,4.4-9.9,9.9s4.3,9.9,9.9,9.9S349,44.5,349,39z"/>
		<path d="M379,39.1c0,0.4,0,0.7,0,1.1h-21.1c0.6,5.3,4.6,8.7,9.9,8.7c3.8,0,6.7-1.8,8.1-4.2l2.1,1.2c-1.9,3.2-5.6,5.3-10.2,5.3
			c-7.2,0-12.3-5.1-12.3-12.2c0-6.9,4.9-12.2,12.1-12.2C374.6,26.8,379,32.7,379,39.1z M357.8,37.9h18.8c-0.5-5.7-4.5-8.9-9.1-8.9
			C362.1,29,358.3,32.7,357.8,37.9z"/>
	</g>
</g>
</svg>
