<?xml version="1.0" encoding="UTF-8"?>
<svg id="Layer_1" data-name="Layer 1" xmlns="http://www.w3.org/2000/svg" xmlns:xlink="http://www.w3.org/1999/xlink" version="1.1" viewBox="0 0 397 71">
  <defs>
    <style>
      .cls-1 {
        fill: url(#radial-gradient);
      }

      .cls-1, .cls-2, .cls-3, .cls-4, .cls-5, .cls-6, .cls-7 {
        stroke-width: 0px;
      }

      .cls-2 {
        fill: url(#radial-gradient-2);
      }

      .cls-3 {
        fill: url(#radial-gradient-3);
      }

      .cls-4 {
        fill: url(#radial-gradient-4);
      }

      .cls-5 {
        fill: url(#radial-gradient-6);
      }

      .cls-6 {
        fill: url(#radial-gradient-5);
      }

      .cls-7 {
        fill: #fff;
      }
    </style>
    <radialGradient id="radial-gradient" cx="2.5" cy="7.3" fx="2.5" fy="7.3" r="102.4" gradientTransform="translate(0 72) scale(1 -1)" gradientUnits="userSpaceOnUse">
      <stop offset="0" stop-color="#f0f"/>
      <stop offset="1" stop-color="aqua"/>
    </radialGradient>
    <radialGradient id="radial-gradient-2" cx="2.5" cy="7.3" fx="2.5" fy="7.3" r="102.4" gradientTransform="translate(0 72) scale(1 -1)" gradientUnits="userSpaceOnUse">
      <stop offset="0" stop-color="#f0f"/>
      <stop offset="1" stop-color="aqua"/>
    </radialGradient>
    <radialGradient id="radial-gradient-3" cx="2.5" cy="7.3" fx="2.5" fy="7.3" r="102.4" gradientTransform="translate(0 72) scale(1 -1)" gradientUnits="userSpaceOnUse">
      <stop offset="0" stop-color="#f0f"/>
      <stop offset="1" stop-color="aqua"/>
    </radialGradient>
    <radialGradient id="radial-gradient-4" cx="2.5" cy="7.3" fx="2.5" fy="7.3" r="102.4" gradientTransform="translate(0 72) scale(1 -1)" gradientUnits="userSpaceOnUse">
      <stop offset="0" stop-color="#f0f"/>
      <stop offset="1" stop-color="aqua"/>
    </radialGradient>
    <radialGradient id="radial-gradient-5" cx="2.5" cy="7.3" fx="2.5" fy="7.3" r="102.4" gradientTransform="translate(0 72) scale(1 -1)" gradientUnits="userSpaceOnUse">
      <stop offset="0" stop-color="#f0f"/>
      <stop offset="1" stop-color="aqua"/>
    </radialGradient>
    <radialGradient id="radial-gradient-6" cx="2.5" cy="7.3" fx="2.5" fy="7.3" r="102.4" gradientTransform="translate(0 72) scale(1 -1)" gradientUnits="userSpaceOnUse">
      <stop offset="0" stop-color="#f0f"/>
      <stop offset="1" stop-color="aqua"/>
    </radialGradient>
  </defs>
  <g>
    <path class="cls-7" d="M119.9,17.9h-4.8c-.4,0-.8.3-.8.5l-9.1,20.3h-.3l-9.1-20.3c0-.3-.4-.5-.8-.5h-4.8c-.8,0-1.1.6-.8,1.2l14.6,31.9c.2.3.4.5.8.5h.5c.4,0,.7-.3.8-.5l14.6-31.8c.3-.7-.1-1.3-.8-1.3Z"/>
    <path class="cls-7" d="M152.4,17.9h-20.6c-.5,0-.8.4-.8.8v3.9c0,.5.4.8.8.8h7.2v26.6c0,.5.4.8.8.8h4.4c.5,0,.8-.4.8-.8v-26.5h7.2c.5,0,.8-.4.8-.8v-3.9c.3-.5,0-.9-.6-.9Z"/>
    <path class="cls-7" d="M189.4,28c0-5.6-4.6-10.2-10.3-10.2h-13.5c-.5,0-.8.4-.8.8v31.4c0,.5.4.8.8.8h4.3c.5,0,.8-.4.8-.8v-12h5.3l6.3,12.6c.1.2.3.4.8.4h4.9c.8,0,1.1-.8.8-1.4l-6.4-12c4.1-1.7,7-5.1,7-9.6ZM178.6,33h-7.7v-9.4h7.7c2.5,0,4.7,2,4.7,4.6s-2.2,4.8-4.7,4.8Z"/>
    <path class="cls-7" d="M226.2,17.9h-4.5c-.5,0-.8.4-.8.8v19.3c0,3.9-2.8,7.1-6.9,7.1s-6.9-3.1-6.9-7.2v-19.1c0-.5-.4-.8-.8-.8h-4.6c-.5,0-.8.4-.8.8v19.7c0,7.2,5.8,13.1,13.2,13.1s13.2-5.9,13.2-13.1v-19.7c0-.5-.6-.9-1.1-.9Z"/>
  </g>
  <g>
    <path class="cls-1" d="M23.9,36.9h-7.7c.2,2.3.8,4.6,1.8,6.7,1.1,2.3,2.5,4.4,4.3,6.2s3.9,3.3,6.2,4.3c2.1,1,4.3,1.6,6.7,1.8v-7.7c-2.8-.5-5.4-1.8-7.5-3.8-2-2.1-3.4-4.7-3.8-7.5Z"/>
    <path class="cls-2" d="M46.6,34.7c0-5.1-4.1-9.2-9.2-9.2s-9.2,4.1-9.2,9.2,4.1,9.2,9.2,9.2,9.2-4.1,9.2-9.2ZM37.4,37.9c-1.8,0-3.2-1.4-3.2-3.2s1.4-3.2,3.2-3.2,3.2,1.4,3.2,3.2c-.1,1.8-1.5,3.2-3.2,3.2Z"/>
    <path class="cls-3" d="M27.7,25.1c2.1-2.1,4.6-3.4,7.5-3.8v-7.7c-2.3.2-4.6.8-6.7,1.8-2.3,1.1-4.4,2.5-6.2,4.3h0c-1.8,1.8-3.3,3.9-4.3,6.2-1,2.1-1.6,4.3-1.8,6.7h7.7c.4-2.9,1.8-5.5,3.8-7.5Z"/>
    <path class="cls-4" d="M37.4,2C19.3,2,4.7,16.6,4.7,34.7s14.6,32.7,32.7,32.7,32.7-14.6,32.7-32.7S55.4,2,37.4,2ZM65,36.9h-2.1c-.2,2.7-.9,5.3-1.9,7.8-1.3,3.1-3.1,5.8-5.5,8.2s-5.1,4.2-8.2,5.5c-2.5,1.1-5.1,1.7-7.8,1.9v2.1c0,.8-.6,1.4-1.4,1.4h-1.5c-.8,0-1.4-.6-1.4-1.4v-2.1c-2.7-.2-5.3-.9-7.8-1.9-3.1-1.3-5.8-3.1-8.2-5.5-2.4-2.4-4.2-5.1-5.5-8.2-1.1-2.5-1.7-5.1-1.9-7.8h-2.1c-.8,0-1.4-.6-1.4-1.4v-1.5c0-.8.6-1.4,1.4-1.4h2.1c.2-2.7.9-5.3,1.9-7.8,1.3-3.1,3.1-5.8,5.5-8.2,2.4-2.4,5.1-4.2,8.2-5.5,2.5-1.1,5.1-1.7,7.8-1.9v-2.2c0-.8.6-1.4,1.4-1.4h1.5c.8,0,1.4.6,1.4,1.4v2.1c2.7.2,5.3.9,7.8,1.9,3.1,1.3,5.8,3.1,8.2,5.5s4.2,5.1,5.5,8.2c1.1,2.5,1.7,5.1,1.9,7.8h2.1c.8,0,1.4.6,1.4,1.4v1.5c0,.8-.6,1.5-1.4,1.5Z"/>
    <path class="cls-6" d="M52.4,19.7c-1.8-1.8-3.9-3.3-6.2-4.3-2.1-1-4.3-1.6-6.7-1.8v7.7c2.8.5,5.4,1.8,7.5,3.8,2.1,2.1,3.4,4.6,3.8,7.5h7.7c-.2-2.3-.8-4.6-1.8-6.7-1-2.3-2.5-4.4-4.3-6.2Z"/>
    <path class="cls-5" d="M47,44.3c-2.1,2.1-4.6,3.4-7.5,3.8v7.7c2.3-.2,4.6-.8,6.7-1.8,2.3-1.1,4.4-2.5,6.2-4.3s3.3-3.9,4.3-6.2c1-2.1,1.6-4.3,1.8-6.7h-7.7c-.4,2.9-1.7,5.5-3.8,7.5Z"/>
  </g>
  <g>
    <path class="cls-7" d="M243.5,43.4l2.1-1.3c1.1,3.9,4.4,6.6,9.8,6.6s8.2-2.8,8.2-6.5-3.5-5.4-8.4-7c-5.5-1.8-10.4-3.3-10.4-9s4.3-8.8,9.9-8.8,8.9,3.1,10.5,6.9l-2.1,1.2c-1.2-2.9-3.7-5.6-8.4-5.6s-7.4,2.7-7.4,6.3,3.3,5.1,8,6.7c5.8,1.9,10.8,3.7,10.8,9.4s-4.2,9-10.7,9c-6.1-.2-10.4-3.2-11.9-7.9Z"/>
    <path class="cls-7" d="M270.8,39c0-6.9,5.2-12.2,12.3-12.2s8.5,2.3,10.2,6l-1.9,1.1c-1.4-2.9-4.5-4.9-8.3-4.9-5.6,0-9.9,4.4-9.9,9.9s4.2,9.9,9.9,9.9,6.9-2,8.4-4.9l2,1.2c-1.9,3.6-5.8,5.9-10.4,5.9-7.1.1-12.3-5.1-12.3-12Z"/>
    <path class="cls-7" d="M296.8,39c0-6.9,5.5-12.2,12.3-12.2s12.2,5.3,12.2,12.2-5.5,12.2-12.2,12.2c-6.9-.1-12.3-5.3-12.3-12.2ZM318.9,39c0-5.6-4.3-9.9-9.8-9.9s-9.9,4.4-9.9,9.9,4.3,9.9,9.9,9.9,9.8-4.4,9.8-9.9Z"/>
    <path class="cls-7" d="M351.3,39c0,6.9-5.4,12.2-12.1,12.2s-8.1-2.3-10-5.9v14.7h-2.3V27.3h2.3v5.4c1.9-3.6,5.5-5.9,10-5.9,6.7,0,12.1,5.3,12.1,12.2ZM349,39c0-5.6-4.3-9.9-9.9-9.9s-9.9,4.4-9.9,9.9,4.3,9.9,9.9,9.9,9.9-4.4,9.9-9.9Z"/>
    <path class="cls-7" d="M379,39.1v1.1h-21.1c.6,5.3,4.6,8.7,9.9,8.7s6.7-1.8,8.1-4.2l2.1,1.2c-1.9,3.2-5.6,5.3-10.2,5.3-7.2,0-12.3-5.1-12.3-12.2s4.9-12.2,12.1-12.2c7,0,11.4,5.9,11.4,12.3ZM357.8,37.9h18.8c-.5-5.7-4.5-8.9-9.1-8.9-5.4,0-9.2,3.7-9.7,8.9Z"/>
  </g>
</svg>