<?xml version="1.0" encoding="utf-8"?>
<!-- Generator: Adobe Illustrator 28.2.0, SVG Export Plug-In . SVG Version: 6.00 Build 0)  -->
<svg version="1.1" id="Layer_1" xmlns="http://www.w3.org/2000/svg" xmlns:xlink="http://www.w3.org/1999/xlink" x="0px" y="0px"
	 viewBox="0 0 403 810" style="enable-background:new 0 0 403 810;" xml:space="preserve">
<style type="text/css">
	.st0{fill:#FFFFFF;}
	.st1{fill:#E6FFFA;}
	.st2{fill:#13DEB9;}
	.st3{fill:#7C8FAC;}
	.st4{fill:#DCDCDC;filter:url(#Adobe_OpacityMaskFilter);}
	.st5{mask:url(#mask0_1911_11162_00000159437354463305798260000005900516755053071529_);}
	.st6{fill:url(#SVGID_1_);fill-opacity:0.6;stroke:#5D87FF;stroke-width:2;}
	.st7{fill:#2A3547;}
	.st8{fill:#ECF2FF;}
	.st9{fill:#B1AFFF;}
	.st10{fill:#5D87FF;}
	.st11{fill:#49BEFF;}
	.st12{fill:#1E3146;}
	.st13{fill:#F9F9FD;}
	.st14{fill:#EDEAFF;}
	.st15{fill:#67C9FF;}
	.st16{fill:#3E69E3;}
	.st17{fill:#FFFFFF;fill-opacity:0.1;}
	.st18{fill:#FFFFFF;fill-opacity:0.2;}
</style>
<g>
	<path class="st0" d="M31,342h342c5.5,0,10,4.5,10,10v188c0,5.5-4.5,10-10,10H31c-5.5,0-10-4.5-10-10V352C21,346.5,25.5,342,31,342z
		"/>
</g>
<path class="st1" d="M146,417L146,417c5.5,0,10,4.5,10,10l0,0c0,5.5-4.5,10-10,10l0,0c-5.5,0-10-4.5-10-10l0,0
	C136,421.5,140.5,417,146,417z"/>
<path class="st2" d="M149.1,430.8l0.7-0.7l-6.6-6.6h6v-1h-7.7v7.7h1v-6L149.1,430.8z"/>
<path class="st3" d="M163.7,433v-3h-3V429h3v-3h1.1v3h3v1.1h-3v3H163.7z M170.2,433l3.6-4.7l0.2-0.1c-0.1,0.2-0.3,0.4-0.5,0.5
	c-0.2,0.1-0.4,0.2-0.6,0.3s-0.5,0.1-0.7,0.1c-0.6,0-1.2-0.1-1.6-0.4c-0.5-0.3-0.9-0.7-1.2-1.2c-0.3-0.5-0.4-1.1-0.4-1.7
	c0-0.6,0.1-1.2,0.4-1.7c0.3-0.5,0.7-0.9,1.2-1.2c0.5-0.3,1.1-0.4,1.7-0.4c0.7,0,1.2,0.1,1.7,0.4c0.5,0.3,0.9,0.7,1.2,1.2
	c0.3,0.5,0.4,1.1,0.4,1.8c0,0.4,0,0.7-0.1,1.1c-0.1,0.4-0.2,0.7-0.4,1.1c-0.2,0.4-0.4,0.7-0.7,1.1l-2.9,3.9H170.2z M172.4,428
	c0.4,0,0.8-0.1,1.2-0.3c0.3-0.2,0.6-0.5,0.8-0.8c0.2-0.4,0.3-0.8,0.3-1.2c0-0.4-0.1-0.8-0.3-1.2c-0.2-0.4-0.5-0.6-0.8-0.8
	c-0.3-0.2-0.7-0.3-1.1-0.3c-0.4,0-0.8,0.1-1.1,0.3c-0.3,0.2-0.6,0.5-0.8,0.8c-0.2,0.3-0.3,0.7-0.3,1.2c0,0.4,0.1,0.8,0.3,1.2
	c0.2,0.3,0.5,0.6,0.8,0.8C171.6,427.9,171.9,428,172.4,428z M178.2,433l8.5-10.4h1.4l-8.5,10.4H178.2z M179.7,427.9
	c-0.5,0-1-0.1-1.4-0.4c-0.4-0.3-0.7-0.6-1-1c-0.2-0.4-0.4-0.9-0.4-1.4s0.1-1,0.4-1.4c0.3-0.4,0.6-0.8,1-1c0.4-0.2,0.9-0.4,1.4-0.4
	s1,0.1,1.4,0.4c0.4,0.2,0.7,0.6,1,1c0.2,0.4,0.4,0.9,0.4,1.4s-0.1,1-0.4,1.4c-0.2,0.4-0.6,0.7-1,1
	C180.7,427.7,180.2,427.9,179.7,427.9z M179.7,426.9c0.3,0,0.6-0.1,0.9-0.2c0.3-0.2,0.4-0.4,0.6-0.6c0.1-0.3,0.2-0.6,0.2-0.8
	c0-0.3-0.1-0.6-0.2-0.8c-0.1-0.3-0.3-0.5-0.6-0.6c-0.2-0.2-0.5-0.3-0.9-0.3c-0.3,0-0.6,0.1-0.9,0.3c-0.3,0.2-0.5,0.4-0.6,0.6
	c-0.1,0.3-0.2,0.5-0.2,0.8c0,0.3,0.1,0.6,0.2,0.8c0.1,0.3,0.3,0.5,0.6,0.6C179.1,426.8,179.4,426.9,179.7,426.9z M186.5,433.2
	c-0.5,0-1-0.1-1.4-0.4c-0.4-0.3-0.7-0.6-1-1c-0.2-0.4-0.4-0.9-0.4-1.4s0.1-1,0.4-1.4c0.3-0.4,0.6-0.8,1-1c0.4-0.2,0.9-0.4,1.4-0.4
	c0.5,0,1,0.1,1.4,0.4c0.4,0.2,0.7,0.6,1,1c0.2,0.4,0.4,0.9,0.4,1.4s-0.1,1-0.4,1.4c-0.2,0.4-0.6,0.7-1,1
	C187.4,433,187,433.2,186.5,433.2z M186.5,432.2c0.3,0,0.6-0.1,0.9-0.2c0.3-0.2,0.4-0.4,0.6-0.6c0.1-0.3,0.2-0.6,0.2-0.8
	c0-0.3-0.1-0.6-0.2-0.8c-0.1-0.3-0.3-0.5-0.6-0.6c-0.2-0.2-0.5-0.3-0.9-0.3c-0.3,0-0.6,0.1-0.9,0.3c-0.3,0.2-0.5,0.4-0.6,0.6
	c-0.1,0.3-0.2,0.5-0.2,0.8c0,0.3,0.1,0.6,0.2,0.8c0.1,0.3,0.3,0.5,0.6,0.6C185.9,432.1,186.1,432.2,186.5,432.2z"/>
<defs>
	<filter id="Adobe_OpacityMaskFilter" filterUnits="userSpaceOnUse" x="47.2" y="465.2" width="306.2" height="63.9">
		<feColorMatrix  type="matrix" values="1 0 0 0 0  0 1 0 0 0  0 0 1 0 0  0 0 0 1 0"/>
	</filter>
</defs>
<mask maskUnits="userSpaceOnUse" x="47.2" y="465.2" width="306.2" height="63.9" id="mask0_1911_11162_00000159437354463305798260000005900516755053071529_">
	<path class="st4" d="M51,452h298v73H51V452z"/>
</mask>
<g class="st5">
	
		<linearGradient id="SVGID_1_" gradientUnits="userSpaceOnUse" x1="200.2505" y1="345.8379" x2="200.2505" y2="283.987" gradientTransform="matrix(1 0 0 -1 0 812)">
		<stop  offset="0" style="stop-color:#E9E9FF"/>
		<stop  offset="1" style="stop-color:#E9E9FF;stop-opacity:0"/>
	</linearGradient>
	<path class="st6" d="M84.3,479.8c-4,35-26.4,17.7-36.1,20.5V528h304.2v-38.5c-10.6,1.4-22.6-8.6-27.3-13.8
		c-17.6-19.4-41.4-4.6-51.1,5.2c-34.2,33.5-61.8,14-71.3,0c-10.6-15.6-22.2-6.5-25.5-0.9c-4.9,9-16.4,16.1-21.6,18.6
		c-39.4,18-55.2-4.3-58.1-24.4C93.5,459.9,84.7,466.8,84.3,479.8z"/>
</g>
<path class="st7" d="M52.4,390v-13.4h2l5,7h-1l5-7h2V390h-2.1v-10.9l0.8,0.2l-5.1,6.9h-0.2l-5-6.9l0.7-0.2V390H52.4z M72.6,390.2
	c-0.9,0-1.8-0.2-2.6-0.7c-0.8-0.4-1.4-1-1.8-1.8c-0.5-0.8-0.7-1.6-0.7-2.6c0-1,0.2-1.9,0.7-2.6c0.5-0.8,1.1-1.4,1.8-1.8
	c0.8-0.4,1.6-0.7,2.6-0.7c1,0,1.8,0.2,2.6,0.7c0.8,0.4,1.4,1,1.8,1.8c0.5,0.8,0.7,1.6,0.7,2.6c0,1-0.2,1.9-0.7,2.6s-1.1,1.4-1.8,1.8
	C74.4,390,73.6,390.2,72.6,390.2z M72.6,388.3c0.6,0,1.1-0.1,1.5-0.4s0.8-0.7,1-1.1c0.3-0.5,0.4-1,0.4-1.7s-0.1-1.2-0.4-1.6
	c-0.3-0.5-0.6-0.9-1-1.1s-1-0.4-1.5-0.4c-0.6,0-1.1,0.1-1.5,0.4c-0.4,0.3-0.8,0.7-1.1,1.1c-0.3,0.5-0.4,1-0.4,1.6s0.1,1.2,0.4,1.7
	c0.3,0.5,0.6,0.9,1.1,1.1C71.5,388.2,72.1,388.3,72.6,388.3z M79.7,390v-9.7h1.9v1.9l-0.2-0.3c0.2-0.6,0.6-1.1,1.2-1.4
	c0.5-0.3,1.1-0.5,1.8-0.5c0.7,0,1.4,0.2,1.9,0.5c0.6,0.3,1,0.7,1.3,1.3c0.3,0.6,0.5,1.2,0.5,1.9v6.3h-2v-5.7c0-0.5-0.1-0.9-0.3-1.2
	c-0.2-0.3-0.4-0.6-0.8-0.8c-0.3-0.2-0.7-0.3-1.1-0.3s-0.8,0.1-1.1,0.3c-0.3,0.2-0.6,0.4-0.8,0.8c-0.2,0.3-0.3,0.8-0.3,1.2v5.7H79.7z
	 M94.4,390.1c-1,0-1.8-0.3-2.4-0.9c-0.6-0.6-0.8-1.4-0.8-2.4v-4.7h-1.7v-1.8h0.3c0.5,0,0.8-0.1,1.1-0.4c0.3-0.3,0.4-0.6,0.4-1.1V378
	h2v2.2h2.2v1.8h-2.2v4.6c0,0.3,0.1,0.6,0.2,0.9c0.1,0.2,0.3,0.4,0.5,0.5c0.2,0.1,0.6,0.2,0.9,0.2c0.1,0,0.2,0,0.3,0
	c0.1,0,0.2,0,0.3,0v1.7c-0.2,0-0.4,0-0.6,0.1C94.8,390.1,94.6,390.1,94.4,390.1z M97.5,390v-13.6h2v5.8l-0.3-0.3
	c0.2-0.6,0.6-1.1,1.2-1.4c0.5-0.3,1.1-0.5,1.8-0.5c0.7,0,1.4,0.2,1.9,0.5c0.6,0.3,1,0.7,1.3,1.3c0.3,0.6,0.5,1.2,0.5,1.9v6.3h-2
	v-5.7c0-0.5-0.1-0.9-0.3-1.2c-0.2-0.3-0.4-0.6-0.8-0.8c-0.3-0.2-0.7-0.3-1.1-0.3c-0.4,0-0.8,0.1-1.1,0.3c-0.3,0.2-0.6,0.4-0.8,0.8
	c-0.2,0.3-0.3,0.8-0.3,1.2v5.7H97.5z M108.1,390v-13.6h2V390H108.1z M113.3,394c-0.2,0-0.5,0-0.7-0.1c-0.2,0-0.4-0.1-0.6-0.2V392
	c0.1,0,0.3,0.1,0.5,0.1c0.2,0,0.4,0.1,0.6,0.1c0.6,0,1-0.1,1.2-0.4c0.3-0.2,0.5-0.6,0.7-1.1l0.6-1.5l0,1.7l-4.2-10.6h2.2l3.1,8.1
	H116l3.1-8.1h2.2l-4.3,10.8c-0.2,0.6-0.5,1.1-0.9,1.5c-0.3,0.4-0.7,0.8-1.2,1C114.5,393.9,114,394,113.3,394z M130.4,390.2
	c-1,0-1.8-0.2-2.6-0.7c-0.7-0.5-1.3-1.1-1.7-1.8c-0.4-0.8-0.6-1.6-0.6-2.6c0-1,0.2-1.9,0.6-2.6c0.4-0.8,1-1.3,1.7-1.8
	c0.7-0.4,1.5-0.7,2.4-0.7c0.7,0,1.4,0.1,2,0.4c0.6,0.3,1.1,0.6,1.5,1c0.4,0.4,0.7,0.9,0.9,1.5c0.2,0.6,0.3,1.2,0.3,1.8
	c0,0.2,0,0.3,0,0.5c0,0.2,0,0.3-0.1,0.5h-7.8v-1.6h6.6l-1,0.7c0.1-0.6,0.1-1.1-0.1-1.6c-0.2-0.5-0.5-0.8-0.9-1.1
	c-0.4-0.3-0.9-0.4-1.4-0.4c-0.5,0-1,0.1-1.4,0.4c-0.4,0.3-0.7,0.6-1,1.2c-0.2,0.5-0.3,1.1-0.3,1.8c-0.1,0.7,0,1.2,0.3,1.7
	c0.3,0.5,0.6,0.9,1,1.2c0.5,0.3,1,0.4,1.5,0.4c0.6,0,1.1-0.1,1.5-0.4c0.4-0.3,0.8-0.6,1-1l1.7,0.8c-0.2,0.5-0.5,0.9-0.9,1.2
	c-0.4,0.4-0.9,0.6-1.4,0.9C131.7,390.1,131.1,390.2,130.4,390.2z M139.7,390.2c-0.7,0-1.2-0.1-1.7-0.3c-0.5-0.2-0.9-0.6-1.2-1
	c-0.3-0.4-0.4-0.9-0.4-1.5c0-0.5,0.1-1,0.3-1.4c0.2-0.4,0.6-0.8,1.1-1.1c0.5-0.3,1.1-0.5,1.9-0.6l3.4-0.6v1.6l-3,0.5
	c-0.5,0.1-0.9,0.3-1.2,0.5c-0.3,0.2-0.4,0.6-0.4,0.9c0,0.4,0.1,0.7,0.4,0.9c0.3,0.2,0.7,0.3,1.1,0.3c0.6,0,1-0.1,1.4-0.4
	c0.4-0.2,0.7-0.6,1-1c0.2-0.4,0.3-0.9,0.3-1.3v-2.5c0-0.5-0.2-0.9-0.5-1.2c-0.3-0.3-0.8-0.5-1.4-0.5c-0.5,0-1,0.1-1.4,0.4
	c-0.4,0.3-0.7,0.6-0.9,1.1l-1.7-0.8c0.2-0.5,0.5-0.9,0.9-1.3c0.4-0.4,0.9-0.7,1.4-0.9c0.6-0.2,1.1-0.3,1.7-0.3c0.8,0,1.4,0.1,2,0.4
	c0.6,0.3,1.1,0.7,1.4,1.2c0.3,0.5,0.5,1.1,0.5,1.8v6.6h-1.9v-1.8l0.4,0.1c-0.2,0.4-0.5,0.7-0.9,1c-0.3,0.3-0.8,0.5-1.2,0.7
	C140.8,390.1,140.3,390.2,139.7,390.2z M147.2,390v-9.7h1.9v2l-0.2-0.3c0.2-0.6,0.6-1.1,1-1.4c0.5-0.3,1.1-0.4,1.7-0.4h0.6v1.9h-0.8
	c-0.7,0-1.2,0.2-1.6,0.6c-0.4,0.4-0.6,1-0.6,1.8v5.6H147.2z M153.8,390v-9.7h1.9v1.9l-0.2-0.3c0.2-0.6,0.6-1.1,1.2-1.4
	c0.5-0.3,1.1-0.5,1.8-0.5c0.7,0,1.4,0.2,1.9,0.5c0.6,0.3,1,0.7,1.3,1.3c0.3,0.6,0.5,1.2,0.5,1.9v6.3h-2v-5.7c0-0.5-0.1-0.9-0.3-1.2
	c-0.2-0.3-0.4-0.6-0.8-0.8c-0.3-0.2-0.7-0.3-1.1-0.3s-0.8,0.1-1.1,0.3c-0.3,0.2-0.6,0.4-0.8,0.8c-0.2,0.3-0.3,0.8-0.3,1.2v5.7H153.8
	z M164.3,390v-9.7h2v9.7H164.3z M164.3,378.9v-2.3h2v2.3H164.3z M168.7,390v-9.7h1.9v1.9l-0.2-0.3c0.2-0.6,0.6-1.1,1.2-1.4
	c0.5-0.3,1.1-0.5,1.8-0.5c0.7,0,1.4,0.2,1.9,0.5c0.6,0.3,1,0.7,1.3,1.3c0.3,0.6,0.5,1.2,0.5,1.9v6.3h-2v-5.7c0-0.5-0.1-0.9-0.3-1.2
	c-0.2-0.3-0.4-0.6-0.8-0.8c-0.3-0.2-0.7-0.3-1.1-0.3s-0.8,0.1-1.1,0.3c-0.3,0.2-0.6,0.4-0.8,0.8c-0.2,0.3-0.3,0.8-0.3,1.2v5.7H168.7
	z M184,394c-0.7,0-1.4-0.1-2-0.3c-0.6-0.2-1.1-0.5-1.5-1c-0.4-0.4-0.8-0.9-1-1.4l1.9-0.8c0.2,0.5,0.5,0.8,0.9,1.1
	c0.5,0.3,1,0.5,1.7,0.5c0.5,0,1-0.1,1.4-0.3c0.4-0.2,0.7-0.5,1-0.9c0.2-0.4,0.4-0.8,0.4-1.4v-2.2l0.4,0.4c-0.3,0.6-0.8,1.1-1.4,1.4
	c-0.6,0.3-1.3,0.5-2,0.5c-0.9,0-1.7-0.2-2.4-0.6c-0.7-0.4-1.3-1-1.7-1.7c-0.4-0.7-0.6-1.6-0.6-2.5c0-0.9,0.2-1.7,0.6-2.5
	c0.4-0.7,1-1.3,1.7-1.7c0.7-0.4,1.5-0.6,2.4-0.6c0.7,0,1.4,0.2,2,0.5c0.6,0.3,1.1,0.8,1.4,1.4l-0.3,0.5v-2.1h1.9v9.3
	c0,0.8-0.2,1.6-0.6,2.2c-0.4,0.7-0.9,1.2-1.7,1.6C185.7,393.8,184.9,394,184,394z M183.9,387.8c0.5,0,1-0.1,1.4-0.4
	c0.4-0.3,0.8-0.6,1-1c0.3-0.4,0.4-0.9,0.4-1.5s-0.1-1-0.4-1.5s-0.6-0.8-1-1c-0.4-0.3-0.9-0.4-1.4-0.4c-0.6,0-1,0.1-1.5,0.4
	c-0.4,0.3-0.8,0.6-1,1c-0.2,0.4-0.4,0.9-0.4,1.5c0,0.5,0.1,1,0.4,1.5c0.3,0.4,0.6,0.8,1,1.1C182.8,387.7,183.3,387.8,183.9,387.8z
	 M194.7,390.2c-1,0-1.9-0.2-2.6-0.7c-0.7-0.5-1.3-1.2-1.6-2l1.6-0.7c0.3,0.6,0.6,1,1.1,1.3c0.5,0.3,1,0.5,1.5,0.5
	c0.5,0,0.9-0.1,1.2-0.3s0.4-0.5,0.4-0.9c0-0.2-0.1-0.4-0.2-0.6c-0.1-0.2-0.3-0.3-0.5-0.4c-0.2-0.1-0.4-0.2-0.6-0.2l-1.5-0.4
	c-0.8-0.2-1.5-0.6-1.9-1.1c-0.4-0.5-0.6-1.1-0.6-1.7c0-0.6,0.1-1.1,0.4-1.5c0.3-0.4,0.7-0.8,1.2-1c0.5-0.2,1.1-0.4,1.8-0.4
	c0.9,0,1.7,0.2,2.4,0.7c0.7,0.4,1.2,1,1.5,1.8l-1.6,0.7c-0.2-0.5-0.5-0.8-0.9-1.1c-0.4-0.3-0.9-0.4-1.4-0.4c-0.4,0-0.8,0.1-1.1,0.3
	c-0.3,0.2-0.4,0.5-0.4,0.8c0,0.2,0.1,0.4,0.2,0.6c0.1,0.1,0.3,0.3,0.5,0.4c0.2,0.1,0.4,0.2,0.6,0.2l1.6,0.5c0.8,0.2,1.4,0.6,1.9,1.1
	c0.4,0.5,0.6,1.1,0.6,1.7c0,0.6-0.2,1.1-0.5,1.5c-0.3,0.4-0.7,0.8-1.3,1C196,390.1,195.4,390.2,194.7,390.2z"/>
<path class="st7" d="M58.1,435.3c-1,0-1.9-0.2-2.7-0.5c-0.8-0.4-1.6-0.9-2.1-1.5c-0.6-0.6-1-1.4-1.3-2.2l2.1-0.9
	c0.4,1,0.9,1.7,1.7,2.2c0.7,0.5,1.6,0.8,2.5,0.8c0.6,0,1-0.1,1.5-0.3c0.4-0.2,0.7-0.4,1-0.8c0.2-0.3,0.4-0.7,0.4-1.1
	c0-0.6-0.2-1-0.5-1.4s-0.8-0.6-1.4-0.8l-2.9-0.9c-1.2-0.4-2.1-0.9-2.7-1.7c-0.6-0.8-0.9-1.6-0.9-2.6c0-0.9,0.2-1.7,0.7-2.3
	c0.4-0.7,1-1.2,1.8-1.6c0.8-0.4,1.6-0.6,2.6-0.6c0.9,0,1.8,0.2,2.6,0.5c0.8,0.3,1.4,0.8,2,1.3c0.6,0.6,1,1.2,1.2,2l-2.1,0.9
	c-0.3-0.8-0.8-1.5-1.4-1.9c-0.6-0.4-1.4-0.7-2.2-0.7c-0.5,0-1,0.1-1.4,0.3c-0.4,0.2-0.7,0.4-0.9,0.8c-0.2,0.3-0.3,0.7-0.3,1.1
	c0,0.5,0.2,1,0.5,1.3s0.8,0.7,1.5,0.9l2.7,0.9c1.2,0.4,2.2,0.9,2.8,1.6c0.6,0.7,0.9,1.6,0.9,2.6c0,0.9-0.2,1.6-0.7,2.3
	c-0.4,0.7-1.1,1.2-1.9,1.6C60.1,435.1,59.1,435.3,58.1,435.3z M57.1,437.1v-19.8h1.7v19.8H57.1z M70.9,435.3c-1,0-1.9-0.2-2.7-0.7
	c-0.8-0.4-1.4-1.1-1.9-1.8c-0.4-0.8-0.7-1.7-0.7-2.7c0-0.5,0.1-1,0.2-1.6c0.1-0.5,0.3-1.1,0.6-1.6c0.3-0.6,0.7-1.2,1.2-1.8l4.4-5.7
	h3l-5.4,6.9l-0.4-0.3c0.2-0.2,0.4-0.4,0.6-0.5c0.2-0.1,0.5-0.2,0.7-0.3c0.3-0.1,0.5-0.1,0.8-0.1c0.9,0,1.8,0.2,2.5,0.7
	c0.7,0.4,1.3,1,1.7,1.8c0.4,0.7,0.7,1.6,0.7,2.6c0,1-0.2,1.9-0.7,2.6c-0.5,0.8-1.1,1.4-1.9,1.8C72.9,435,72,435.3,70.9,435.3z
	 M70.9,433c0.5,0,1-0.1,1.4-0.4c0.4-0.3,0.8-0.6,1-1c0.3-0.4,0.4-1,0.4-1.5c0-0.6-0.1-1.1-0.4-1.5c-0.2-0.4-0.6-0.8-1-1
	c-0.4-0.3-0.9-0.4-1.4-0.4c-0.5,0-1,0.1-1.4,0.4c-0.4,0.2-0.8,0.6-1,1s-0.4,0.9-0.4,1.5c0,0.6,0.1,1.1,0.4,1.5c0.3,0.4,0.6,0.8,1,1
	C69.9,432.9,70.4,433,70.9,433z M79.2,438.1v-1.2c0.5-0.1,0.8-0.3,1.1-0.7c0.3-0.3,0.4-0.7,0.5-1.3h-1.1v-2.7H82v1.8
	c0,1.1-0.2,2-0.7,2.7C80.8,437.5,80.1,437.9,79.2,438.1z M90.7,435.3c-1.1,0-2.1-0.2-2.9-0.6c-0.8-0.4-1.4-1-1.9-1.7
	c-0.4-0.7-0.7-1.5-0.7-2.4c0-1,0.3-1.9,0.8-2.6c0.6-0.7,1.3-1.3,2.4-1.6l-0.1,0.6c-0.7-0.3-1.3-0.7-1.8-1.4
	c-0.4-0.7-0.6-1.4-0.6-2.2c0-0.8,0.2-1.5,0.6-2.1c0.4-0.6,1-1.1,1.7-1.5c0.7-0.4,1.5-0.5,2.5-0.5c0.9,0,1.7,0.2,2.5,0.5
	c0.7,0.4,1.3,0.8,1.7,1.5c0.4,0.6,0.6,1.4,0.6,2.2c0,0.8-0.2,1.6-0.7,2.2c-0.4,0.6-1,1.1-1.7,1.4l-0.1-0.6c1,0.4,1.8,0.9,2.4,1.6
	c0.6,0.7,0.8,1.6,0.8,2.6c0,0.9-0.2,1.7-0.7,2.4c-0.4,0.7-1.1,1.3-1.9,1.7C92.8,435,91.8,435.3,90.7,435.3z M90.7,433.2
	c0.6,0,1.1-0.1,1.6-0.3c0.4-0.2,0.8-0.6,1.1-1s0.4-0.9,0.4-1.4s-0.1-1-0.4-1.4c-0.3-0.4-0.6-0.7-1.1-0.9c-0.4-0.2-1-0.3-1.6-0.3
	c-0.6,0-1.1,0.1-1.6,0.3s-0.8,0.5-1,0.9c-0.3,0.4-0.4,0.9-0.4,1.4s0.1,1,0.4,1.4c0.3,0.4,0.6,0.7,1,1
	C89.6,433,90.1,433.2,90.7,433.2z M90.7,425.6c0.4,0,0.8-0.1,1.2-0.3c0.3-0.2,0.6-0.5,0.8-0.8s0.3-0.7,0.3-1.1
	c0-0.4-0.1-0.8-0.3-1.1c-0.2-0.3-0.5-0.6-0.8-0.8c-0.3-0.2-0.7-0.3-1.2-0.3c-0.4,0-0.8,0.1-1.2,0.3c-0.3,0.2-0.6,0.4-0.8,0.8
	c-0.2,0.3-0.3,0.7-0.3,1.1c0,0.4,0.1,0.8,0.3,1.1c0.2,0.3,0.5,0.6,0.8,0.8C89.9,425.5,90.3,425.6,90.7,425.6z M98.4,435v-1.8
	l4.3-4.6c0.8-0.9,1.5-1.6,2-2.2c0.5-0.6,0.8-1,1.1-1.5c0.2-0.4,0.3-0.9,0.3-1.3c0-0.8-0.2-1.3-0.7-1.7c-0.5-0.4-1.1-0.6-1.8-0.6
	c-0.8,0-1.4,0.2-2,0.7c-0.5,0.4-0.9,1-1.1,1.8l-2.2-0.6c0.2-0.8,0.5-1.5,1-2.1c0.5-0.6,1.1-1.1,1.8-1.4c0.7-0.3,1.5-0.5,2.4-0.5
	c1,0,1.9,0.2,2.6,0.6c0.7,0.4,1.3,0.9,1.7,1.5c0.4,0.7,0.6,1.4,0.6,2.3c0,0.6-0.1,1.1-0.3,1.7c-0.2,0.5-0.5,1.1-1,1.7
	c-0.4,0.6-1,1.3-1.7,2l-3.8,4h7.1v2.1H98.4z M117.4,435.3c-1.2,0-2.3-0.3-3.3-1c-0.9-0.7-1.7-1.6-2.2-2.8c-0.5-1.2-0.8-2.6-0.8-4.2
	c0-1.6,0.3-3,0.8-4.2c0.5-1.2,1.3-2.1,2.2-2.8c0.9-0.7,2-1,3.3-1s2.3,0.3,3.3,1c0.9,0.7,1.7,1.6,2.2,2.8c0.5,1.2,0.8,2.6,0.8,4.2
	c0,1.6-0.3,3-0.8,4.2c-0.5,1.2-1.2,2.1-2.2,2.8C119.8,434.9,118.7,435.3,117.4,435.3z M117.4,433c0.8,0,1.4-0.2,2-0.7
	c0.6-0.5,1-1.1,1.3-2s0.5-1.9,0.5-3.1s-0.2-2.2-0.5-3.1c-0.3-0.9-0.7-1.5-1.3-2c-0.6-0.5-1.2-0.7-2-0.7c-0.8,0-1.4,0.2-2,0.7
	c-0.6,0.5-1,1.1-1.3,2c-0.3,0.9-0.5,1.9-0.5,3.1c0,1.2,0.2,2.2,0.5,3.1c0.3,0.9,0.7,1.5,1.3,2C116,432.7,116.7,433,117.4,433z"/>
<path class="st8" d="M320,373.5h24c4.4,0,8,3.6,8,8v24c0,4.4-3.6,8-8,8h-24c-4.4,0-8-3.6-8-8v-24C312,377.1,315.6,373.5,320,373.5z"
	/>
<path class="st9" d="M335.3,400.2c-1.3,0-2.6-0.4-3.7-1.1c-1.1-0.7-2-1.8-2.5-3c-0.5-1.2-0.6-2.6-0.4-3.9c0.3-1.3,0.9-2.5,1.8-3.4
	c0.9-0.9,2.1-1.6,3.4-1.8s2.7-0.1,3.9,0.4c1.2,0.5,2.3,1.4,3,2.5c0.7,1.1,1.1,2.4,1.1,3.7v0c0,1.8-0.7,3.5-2,4.8
	C338.8,399.5,337.1,400.2,335.3,400.2z"/>
<path class="st10" d="M328.7,400.2c-1.3,0-2.6-0.4-3.7-1.1c-1.1-0.7-2-1.8-2.5-3c-0.5-1.2-0.6-2.6-0.4-3.9c0.3-1.3,0.9-2.5,1.8-3.4
	s2.1-1.6,3.4-1.8c1.3-0.3,2.7-0.1,3.9,0.4c1.2,0.5,2.3,1.4,3,2.5c0.7,1.1,1.1,2.4,1.1,3.7c0,1.8-0.7,3.5-2,4.8
	C332.2,399.5,330.5,400.2,328.7,400.2z"/>
<g>
	<path class="st0" d="M33,8h152c6.6,0,12,5.4,12,12v129c0,6.6-5.4,12-12,12H33c-6.6,0-12-5.4-12-12V20C21,13.4,26.4,8,33,8z"/>
</g>
<path class="st11" d="M54,113h1c1.1,0,2,0.9,2,2v22c0,1.1-0.9,2-2,2h-1c-1.1,0-2-0.9-2-2v-22C52,113.9,52.9,113,54,113z"/>
<path class="st11" d="M67,104h1c1.1,0,2,0.9,2,2v31c0,1.1-0.9,2-2,2h-1c-1.1,0-2-0.9-2-2v-31C65,104.9,65.9,104,67,104z"/>
<path class="st11" d="M80,104h1c1.1,0,2,0.9,2,2v31c0,1.1-0.9,2-2,2h-1c-1.1,0-2-0.9-2-2v-31C78,104.9,78.9,104,80,104z"/>
<path class="st11" d="M93,92h1c1.1,0,2,0.9,2,2v43c0,1.1-0.9,2-2,2h-1c-1.1,0-2-0.9-2-2V94C91,92.9,91.9,92,93,92z"/>
<path class="st11" d="M106,96h1c1.1,0,2,0.9,2,2v39c0,1.1-0.9,2-2,2h-1c-1.1,0-2-0.9-2-2V98C104,96.9,104.9,96,106,96z"/>
<path class="st11" d="M119,104h1c1.1,0,2,0.9,2,2v31c0,1.1-0.9,2-2,2h-1c-1.1,0-2-0.9-2-2v-31C117,104.9,117.9,104,119,104z"/>
<path class="st11" d="M132,116h1c1.1,0,2,0.9,2,2v19c0,1.1-0.9,2-2,2h-1c-1.1,0-2-0.9-2-2v-19C130,116.9,130.9,116,132,116z"/>
<path class="st11" d="M145,96h1c1.1,0,2,0.9,2,2v39c0,1.1-0.9,2-2,2h-1c-1.1,0-2-0.9-2-2V98C143,96.9,143.9,96,145,96z"/>
<path class="st11" d="M158,113h1c1.1,0,2,0.9,2,2v22c0,1.1-0.9,2-2,2h-1c-1.1,0-2-0.9-2-2v-22C156,113.9,156.9,113,158,113z"/>
<path class="st3" d="M47.2,43V32.6H54v1h-5.6v3.6h5.3v1.1h-5.3V42H54v1H47.2z M57.5,43.2c-0.5,0-0.9-0.1-1.3-0.3
	c-0.4-0.2-0.7-0.4-0.9-0.8c-0.2-0.3-0.3-0.7-0.3-1.1c0-0.4,0.1-0.7,0.3-1.1c0.2-0.3,0.4-0.6,0.8-0.8c0.4-0.2,0.8-0.4,1.4-0.5
	l2.9-0.5v1l-2.7,0.4c-0.5,0.1-0.9,0.3-1.2,0.5c-0.2,0.3-0.3,0.6-0.3,0.9c0,0.3,0.1,0.6,0.4,0.9c0.3,0.2,0.6,0.3,1,0.3
	c0.5,0,1-0.1,1.3-0.3c0.4-0.2,0.7-0.5,0.9-0.9c0.2-0.4,0.3-0.8,0.3-1.2v-1.9c0-0.4-0.2-0.8-0.5-1.1c-0.3-0.3-0.8-0.4-1.3-0.4
	c-0.5,0-0.9,0.1-1.2,0.4c-0.3,0.2-0.6,0.5-0.8,0.9l-1-0.5c0.1-0.3,0.4-0.6,0.7-0.9c0.3-0.3,0.7-0.5,1-0.6c0.4-0.2,0.8-0.2,1.2-0.2
	c0.6,0,1,0.1,1.5,0.3c0.4,0.2,0.8,0.5,1,0.9c0.2,0.4,0.4,0.8,0.4,1.3V43h-1.1v-1.5l0.2,0.2c-0.1,0.3-0.3,0.5-0.6,0.8
	c-0.3,0.2-0.6,0.4-1,0.5C58.4,43.1,58,43.2,57.5,43.2z M63.1,43v-7.5h1v1.2L64,36.5c0.2-0.4,0.4-0.6,0.8-0.8
	c0.4-0.2,0.8-0.3,1.3-0.3h0.5v1.1h-0.7c-0.5,0-1,0.2-1.3,0.5s-0.5,0.8-0.5,1.4V43H63.1z M67.6,43v-7.5h1.1V37l-0.2-0.1
	c0.2-0.5,0.5-0.9,0.9-1.1c0.4-0.3,0.9-0.4,1.5-0.4c0.5,0,1,0.1,1.4,0.4c0.4,0.2,0.8,0.6,1,1c0.3,0.4,0.4,0.9,0.4,1.4V43h-1.1v-4.5
	c0-0.5-0.1-0.8-0.3-1.2c-0.2-0.3-0.4-0.6-0.7-0.7c-0.3-0.2-0.6-0.3-1-0.3c-0.4,0-0.7,0.1-1,0.3c-0.3,0.2-0.5,0.4-0.7,0.7
	c-0.2,0.3-0.3,0.7-0.3,1.1V43H67.6z M75.3,43v-7.5h1.1V43H75.3z M75.3,34.1v-1.5h1.1v1.5H75.3z M78.2,43v-7.5h1V37L79,36.9
	c0.2-0.5,0.5-0.9,0.9-1.1c0.4-0.3,0.9-0.4,1.5-0.4c0.5,0,1,0.1,1.4,0.4c0.4,0.2,0.8,0.6,1,1c0.3,0.4,0.4,0.9,0.4,1.4V43h-1v-4.5
	c0-0.5-0.1-0.8-0.3-1.2c-0.2-0.3-0.4-0.6-0.7-0.7c-0.3-0.2-0.6-0.3-1-0.3c-0.4,0-0.7,0.1-1,0.3c-0.3,0.2-0.5,0.4-0.7,0.7
	c-0.2,0.3-0.3,0.7-0.3,1.1V43H78.2z M89.5,46.1c-0.5,0-1-0.1-1.4-0.2c-0.4-0.2-0.8-0.4-1.1-0.7c-0.3-0.3-0.5-0.6-0.7-1l1-0.5
	c0.1,0.4,0.4,0.7,0.8,0.9c0.4,0.3,0.9,0.4,1.5,0.4c0.5,0,0.9-0.1,1.3-0.3c0.4-0.2,0.7-0.4,0.9-0.8c0.2-0.3,0.3-0.8,0.3-1.3V41
	l0.2,0.2c-0.3,0.5-0.6,1-1.2,1.3c-0.5,0.3-1.1,0.4-1.7,0.4c-0.7,0-1.3-0.2-1.9-0.5c-0.6-0.3-1-0.8-1.3-1.4c-0.3-0.6-0.5-1.2-0.5-1.9
	c0-0.7,0.2-1.3,0.5-1.9c0.3-0.6,0.8-1,1.3-1.4c0.6-0.3,1.2-0.5,1.9-0.5c0.6,0,1.2,0.1,1.7,0.4c0.5,0.3,0.9,0.7,1.2,1.1L92,37.2v-1.7
	h1.1v7.2c0,0.6-0.2,1.2-0.5,1.7c-0.3,0.5-0.7,0.9-1.3,1.2C90.8,45.9,90.2,46.1,89.5,46.1z M89.4,41.8c0.5,0,0.9-0.1,1.3-0.4
	c0.4-0.3,0.7-0.6,0.9-1c0.2-0.4,0.4-0.9,0.4-1.4c0-0.5-0.1-0.9-0.4-1.4c-0.2-0.4-0.5-0.8-0.9-1c-0.4-0.3-0.8-0.4-1.3-0.4
	c-0.5,0-0.9,0.1-1.3,0.4c-0.4,0.2-0.7,0.6-1,1c-0.2,0.4-0.3,0.9-0.3,1.4c0,0.5,0.1,1,0.3,1.4c0.2,0.4,0.5,0.7,0.9,1
	C88.4,41.7,88.9,41.8,89.4,41.8z M97.6,43.2c-0.7,0-1.3-0.2-1.9-0.5c-0.5-0.4-0.9-0.9-1.2-1.5l0.9-0.4c0.2,0.5,0.5,0.8,0.9,1.1
	c0.4,0.3,0.8,0.4,1.3,0.4c0.4,0,0.8-0.1,1.1-0.3c0.3-0.2,0.5-0.5,0.5-0.9c0-0.3-0.1-0.5-0.2-0.6c-0.1-0.2-0.3-0.3-0.5-0.4
	c-0.2-0.1-0.4-0.1-0.5-0.2l-1.1-0.3c-0.7-0.2-1.2-0.5-1.5-0.8c-0.3-0.4-0.5-0.8-0.5-1.2c0-0.4,0.1-0.8,0.3-1.1
	c0.2-0.3,0.5-0.6,0.9-0.8c0.4-0.2,0.8-0.3,1.3-0.3c0.6,0,1.2,0.2,1.7,0.5c0.5,0.3,0.9,0.8,1.1,1.4l-0.9,0.4c-0.2-0.4-0.5-0.7-0.8-1
	c-0.3-0.2-0.7-0.4-1.2-0.4c-0.4,0-0.8,0.1-1,0.3c-0.3,0.2-0.4,0.5-0.4,0.8c0,0.3,0.1,0.5,0.2,0.6s0.3,0.3,0.4,0.3
	c0.2,0.1,0.3,0.1,0.5,0.2l1.2,0.4c0.6,0.2,1.1,0.5,1.4,0.8c0.3,0.4,0.5,0.8,0.5,1.3c0,0.4-0.1,0.8-0.4,1.1c-0.2,0.3-0.5,0.6-0.9,0.8
	C98.5,43.1,98.1,43.2,97.6,43.2z"/>
<path class="st7" d="M53.1,73.3c-1,0-1.9-0.2-2.7-0.5c-0.8-0.4-1.6-0.9-2.1-1.5c-0.6-0.6-1-1.4-1.3-2.2l2.1-0.9
	c0.4,1,0.9,1.7,1.7,2.2c0.7,0.5,1.6,0.8,2.5,0.8c0.6,0,1-0.1,1.5-0.3c0.4-0.2,0.7-0.4,1-0.8c0.2-0.3,0.4-0.7,0.4-1.1
	c0-0.6-0.2-1-0.5-1.4s-0.8-0.6-1.4-0.8l-2.9-0.9c-1.2-0.4-2.1-0.9-2.7-1.7c-0.6-0.8-0.9-1.6-0.9-2.6c0-0.9,0.2-1.7,0.7-2.3
	c0.4-0.7,1-1.2,1.8-1.6c0.8-0.4,1.6-0.6,2.6-0.6c0.9,0,1.8,0.2,2.6,0.5c0.8,0.3,1.4,0.8,2,1.3c0.6,0.6,1,1.2,1.2,2l-2.1,0.9
	c-0.3-0.8-0.8-1.5-1.4-1.9c-0.6-0.4-1.4-0.7-2.2-0.7c-0.5,0-1,0.1-1.4,0.3c-0.4,0.2-0.7,0.4-0.9,0.8C50.1,60.6,50,61,50,61.4
	c0,0.5,0.2,1,0.5,1.3c0.3,0.4,0.8,0.7,1.5,0.9l2.7,0.9c1.2,0.4,2.2,0.9,2.8,1.6c0.6,0.7,0.9,1.6,0.9,2.6c0,0.9-0.2,1.6-0.7,2.3
	c-0.4,0.7-1.1,1.2-1.9,1.6C55.1,73.1,54.1,73.3,53.1,73.3z M52.1,75.1V55.3h1.7v19.8H52.1z M65.9,73.3c-1,0-1.9-0.2-2.7-0.7
	c-0.8-0.4-1.4-1.1-1.9-1.8c-0.4-0.8-0.7-1.7-0.7-2.7c0-0.5,0.1-1,0.2-1.6c0.1-0.5,0.3-1.1,0.6-1.6c0.3-0.6,0.7-1.2,1.2-1.8l4.4-5.7
	h3l-5.4,6.9L64.1,64c0.2-0.2,0.4-0.4,0.6-0.5c0.2-0.1,0.5-0.2,0.7-0.3c0.3-0.1,0.5-0.1,0.8-0.1c0.9,0,1.8,0.2,2.5,0.7s1.3,1,1.7,1.8
	c0.4,0.7,0.7,1.6,0.7,2.6c0,1-0.2,1.9-0.7,2.6c-0.5,0.8-1.1,1.4-1.9,1.8C67.9,73,67,73.3,65.9,73.3z M65.9,71c0.5,0,1-0.1,1.4-0.4
	s0.8-0.6,1-1c0.3-0.4,0.4-1,0.4-1.5c0-0.6-0.1-1.1-0.4-1.5c-0.2-0.4-0.6-0.8-1-1c-0.4-0.3-0.9-0.4-1.4-0.4c-0.5,0-1,0.1-1.4,0.4
	c-0.4,0.2-0.8,0.6-1,1c-0.3,0.4-0.4,0.9-0.4,1.5c0,0.6,0.1,1.1,0.4,1.5c0.3,0.4,0.6,0.8,1,1C64.9,70.9,65.4,71,65.9,71z M73.8,73
	l6.7-13.5h-7.5v-2.1H83v2.1L76.5,73H73.8z M90.5,73.3c-1.1,0-2.1-0.2-2.9-0.6c-0.8-0.4-1.4-1-1.9-1.7c-0.4-0.7-0.7-1.5-0.7-2.4
	c0-1,0.3-1.9,0.8-2.6c0.6-0.7,1.3-1.3,2.4-1.6l-0.1,0.6c-0.7-0.3-1.3-0.7-1.8-1.4c-0.4-0.7-0.6-1.4-0.6-2.2s0.2-1.5,0.6-2.1
	c0.4-0.6,1-1.1,1.7-1.5c0.7-0.4,1.5-0.5,2.5-0.5c0.9,0,1.7,0.2,2.5,0.5c0.7,0.4,1.3,0.8,1.7,1.5c0.4,0.6,0.6,1.4,0.6,2.2
	c0,0.8-0.2,1.6-0.7,2.2c-0.4,0.6-1,1.1-1.7,1.4l-0.1-0.6c1,0.3,1.8,0.9,2.4,1.6c0.6,0.7,0.8,1.6,0.8,2.6c0,0.9-0.2,1.7-0.7,2.4
	c-0.4,0.7-1.1,1.3-1.9,1.7C92.5,73,91.5,73.3,90.5,73.3z M90.5,71.2c0.6,0,1.1-0.1,1.6-0.3c0.4-0.2,0.8-0.6,1-1
	c0.3-0.4,0.4-0.9,0.4-1.4c0-0.5-0.1-1-0.4-1.4c-0.3-0.4-0.6-0.7-1-0.9c-0.4-0.2-1-0.3-1.6-0.3c-0.6,0-1.1,0.1-1.6,0.3
	c-0.4,0.2-0.8,0.5-1.1,0.9c-0.3,0.4-0.4,0.9-0.4,1.4c0,0.5,0.1,1,0.4,1.4s0.6,0.7,1.1,1C89.3,71,89.9,71.2,90.5,71.2z M90.5,63.6
	c0.4,0,0.8-0.1,1.2-0.3c0.3-0.2,0.6-0.5,0.8-0.8s0.3-0.7,0.3-1.1c0-0.4-0.1-0.8-0.3-1.1c-0.2-0.3-0.5-0.6-0.8-0.8
	c-0.3-0.2-0.7-0.3-1.2-0.3c-0.4,0-0.8,0.1-1.2,0.3c-0.3,0.2-0.6,0.4-0.8,0.8c-0.2,0.3-0.3,0.7-0.3,1.1c0,0.4,0.1,0.8,0.3,1.1
	s0.5,0.6,0.8,0.8C89.6,63.5,90,63.6,90.5,63.6z M99.1,76.1v-1.2c0.5-0.1,0.8-0.3,1.1-0.7c0.3-0.3,0.4-0.7,0.5-1.3h-1.1v-2.7h2.4v1.8
	c0,1.1-0.2,2-0.7,2.7C100.7,75.4,100,75.9,99.1,76.1z M105,73v-1.8l4.3-4.6c0.8-0.9,1.5-1.6,2-2.2c0.5-0.6,0.8-1,1.1-1.5
	c0.2-0.4,0.3-0.9,0.3-1.3c0-0.8-0.2-1.3-0.7-1.7c-0.5-0.4-1.1-0.6-1.8-0.6c-0.8,0-1.4,0.2-2,0.7c-0.5,0.4-0.9,1-1.1,1.8l-2.2-0.6
	c0.2-0.8,0.5-1.5,1-2.1c0.5-0.6,1.1-1.1,1.8-1.4c0.7-0.3,1.5-0.5,2.4-0.5c1,0,1.9,0.2,2.6,0.6c0.7,0.4,1.3,0.9,1.7,1.5
	c0.4,0.7,0.6,1.4,0.6,2.3c0,0.6-0.1,1.1-0.3,1.7c-0.2,0.5-0.5,1.1-1,1.7c-0.4,0.6-1,1.3-1.7,2l-3.8,4h7.1V73H105z M118.9,73l5.4-6.9
	l0.4,0.3c-0.2,0.2-0.4,0.4-0.7,0.5c-0.2,0.1-0.5,0.2-0.7,0.3c-0.3,0.1-0.5,0.1-0.8,0.1c-0.9,0-1.8-0.2-2.5-0.6
	c-0.7-0.4-1.3-1-1.8-1.8c-0.4-0.8-0.6-1.6-0.6-2.6c0-1,0.2-1.9,0.7-2.6s1.1-1.4,1.9-1.8c0.8-0.4,1.7-0.7,2.7-0.7
	c1,0,1.9,0.2,2.7,0.7c0.8,0.4,1.4,1.1,1.9,1.8c0.5,0.8,0.7,1.7,0.7,2.6c0,0.5-0.1,1.1-0.2,1.6c-0.1,0.5-0.3,1.1-0.6,1.6
	c-0.3,0.5-0.7,1.1-1.2,1.8l-4.4,5.7H118.9z M122.8,65.1c0.5,0,1-0.1,1.4-0.4s0.8-0.6,1-1c0.3-0.4,0.4-0.9,0.4-1.5
	c0-0.6-0.1-1.1-0.4-1.5c-0.3-0.4-0.6-0.8-1-1c-0.4-0.3-0.9-0.4-1.4-0.4c-0.5,0-1,0.1-1.4,0.4c-0.4,0.2-0.8,0.6-1,1
	c-0.3,0.4-0.4,0.9-0.4,1.5c0,0.6,0.1,1.1,0.4,1.5c0.3,0.4,0.6,0.8,1,1S122.3,65.1,122.8,65.1z M135.8,73.3c-1.1,0-2.1-0.2-2.9-0.6
	c-0.8-0.4-1.4-1-1.9-1.7c-0.4-0.7-0.7-1.5-0.7-2.4c0-1,0.3-1.9,0.8-2.6c0.6-0.7,1.3-1.3,2.4-1.6l-0.1,0.6c-0.7-0.3-1.3-0.7-1.8-1.4
	c-0.4-0.7-0.6-1.4-0.6-2.2s0.2-1.5,0.6-2.1c0.4-0.6,1-1.1,1.7-1.5c0.7-0.4,1.5-0.5,2.5-0.5c0.9,0,1.7,0.2,2.5,0.5
	c0.7,0.4,1.3,0.8,1.7,1.5c0.4,0.6,0.6,1.4,0.6,2.2c0,0.8-0.2,1.6-0.7,2.2c-0.4,0.6-1,1.1-1.7,1.4l-0.1-0.6c1,0.3,1.8,0.9,2.4,1.6
	c0.6,0.7,0.8,1.6,0.8,2.6c0,0.9-0.2,1.7-0.7,2.4c-0.4,0.7-1.1,1.3-1.9,1.7C137.8,73,136.8,73.3,135.8,73.3z M135.8,71.2
	c0.6,0,1.1-0.1,1.6-0.3c0.4-0.2,0.8-0.6,1.1-1s0.4-0.9,0.4-1.4c0-0.5-0.1-1-0.4-1.4c-0.3-0.4-0.6-0.7-1.1-0.9
	c-0.4-0.2-1-0.3-1.6-0.3c-0.6,0-1.1,0.1-1.6,0.3c-0.4,0.2-0.8,0.5-1.1,0.9c-0.3,0.4-0.4,0.9-0.4,1.4c0,0.5,0.1,1,0.4,1.4
	s0.6,0.7,1.1,1C134.6,71,135.2,71.2,135.8,71.2z M135.8,63.6c0.4,0,0.8-0.1,1.2-0.3c0.4-0.2,0.6-0.5,0.8-0.8
	c0.2-0.3,0.3-0.7,0.3-1.1c0-0.4-0.1-0.8-0.3-1.1c-0.2-0.3-0.5-0.6-0.8-0.8c-0.3-0.2-0.7-0.3-1.2-0.3c-0.4,0-0.8,0.1-1.2,0.3
	c-0.4,0.2-0.6,0.4-0.8,0.8c-0.2,0.3-0.3,0.7-0.3,1.1c0,0.4,0.1,0.8,0.3,1.1s0.5,0.6,0.8,0.8C134.9,63.5,135.3,63.6,135.8,63.6z"/>
<g>
	<path class="st0" d="M30,570h342c5.5,0,10,4.5,10,10v188c0,5.5-4.5,10-10,10H30c-5.5,0-10-4.5-10-10V580C20,574.5,24.5,570,30,570z
		"/>
</g>
<path class="st12" d="M52.1,668.3c-1.1,0-2.2-0.2-3.1-0.6c-1-0.4-1.8-1-2.4-1.8c-0.7-0.7-1.2-1.6-1.5-2.5l2.4-1
	c0.4,1.1,1.1,2,1.9,2.5c0.8,0.6,1.8,0.9,2.9,0.9c0.6,0,1.2-0.1,1.7-0.3c0.5-0.2,0.8-0.5,1.1-0.9c0.3-0.4,0.4-0.8,0.4-1.3
	c0-0.7-0.2-1.2-0.6-1.6c-0.4-0.4-0.9-0.7-1.6-0.9l-3.4-1.1c-1.3-0.4-2.4-1-3.1-1.9c-0.7-0.9-1.1-1.9-1.1-3c0-1,0.2-1.9,0.7-2.6
	c0.5-0.8,1.2-1.4,2-1.8c0.9-0.4,1.9-0.6,3-0.6c1.1,0,2,0.2,2.9,0.6c0.9,0.4,1.6,0.9,2.3,1.5c0.6,0.7,1.1,1.4,1.4,2.3l-2.4,1
	c-0.4-0.9-0.9-1.7-1.7-2.2c-0.7-0.5-1.6-0.8-2.6-0.8c-0.6,0-1.1,0.1-1.6,0.3c-0.4,0.2-0.8,0.5-1.1,0.9c-0.2,0.4-0.4,0.8-0.4,1.3
	c0,0.6,0.2,1.1,0.6,1.5s0.9,0.8,1.7,1l3.1,1c1.4,0.4,2.5,1.1,3.2,1.9c0.7,0.8,1.1,1.8,1.1,3c0,1-0.3,1.9-0.8,2.6
	c-0.5,0.8-1.2,1.4-2.1,1.8C54.4,668.1,53.3,668.3,52.1,668.3z M51,670.4v-22.7h1.9v22.7H51z M66.6,668.3c-1,0-1.9-0.2-2.7-0.5
	c-0.8-0.4-1.6-0.8-2.2-1.5c-0.6-0.6-1-1.4-1.3-2.3l2.4-0.9c0.3,0.8,0.8,1.5,1.5,2c0.7,0.5,1.4,0.7,2.3,0.7c0.7,0,1.3-0.1,1.8-0.4
	c0.5-0.3,0.9-0.7,1.2-1.2c0.3-0.5,0.5-1.1,0.5-1.8c0-0.7-0.2-1.3-0.5-1.8c-0.3-0.5-0.7-0.9-1.2-1.1c-0.5-0.3-1.1-0.4-1.8-0.4
	c-0.3,0-0.6,0-0.9,0.1c-0.3,0-0.5,0.1-0.8,0.2l-0.6-1.3l4.7-5.5h-7.6v-2.4h10.8v2.3l-4.6,5.5l-0.1-0.9c1.1,0,2,0.3,2.8,0.7
	c0.8,0.4,1.4,1.1,1.9,1.9c0.5,0.8,0.7,1.7,0.7,2.7c0,1.1-0.3,2.1-0.8,3c-0.5,0.9-1.3,1.6-2.3,2.1C68.9,668,67.8,668.3,66.6,668.3z
	 M81.4,668.3c-1.2,0-2.2-0.3-3.1-0.8c-0.9-0.5-1.6-1.2-2.2-2.1c-0.5-0.9-0.8-1.9-0.8-3c0-0.6,0.1-1.2,0.2-1.8
	c0.1-0.6,0.4-1.2,0.7-1.8c0.3-0.6,0.8-1.3,1.3-2.1l5-6.6H86l-6.1,7.9l-0.5-0.3c0.2-0.3,0.5-0.5,0.7-0.6c0.3-0.1,0.6-0.2,0.8-0.3
	c0.3-0.1,0.6-0.1,1-0.1c1.1,0,2,0.2,2.9,0.7c0.8,0.5,1.5,1.2,2,2c0.5,0.8,0.7,1.8,0.7,2.9c0,1.1-0.3,2.1-0.8,3
	c-0.5,0.9-1.2,1.6-2.2,2.1C83.7,668,82.6,668.3,81.4,668.3z M81.4,665.8c0.6,0,1.2-0.1,1.7-0.4c0.5-0.3,0.9-0.7,1.2-1.2
	c0.3-0.5,0.4-1.1,0.4-1.7c0-0.7-0.1-1.2-0.4-1.7c-0.3-0.5-0.7-0.9-1.2-1.2c-0.5-0.3-1-0.4-1.7-0.4c-0.6,0-1.2,0.1-1.7,0.4
	c-0.5,0.3-0.9,0.7-1.2,1.2c-0.3,0.5-0.4,1.1-0.4,1.7c0,0.6,0.1,1.2,0.4,1.7c0.3,0.5,0.7,0.9,1.2,1.2
	C80.3,665.6,80.8,665.8,81.4,665.8z M90.9,671.5v-1.3c0.5-0.1,0.9-0.4,1.2-0.7c0.3-0.4,0.5-0.8,0.5-1.5h-1.3v-3.1h2.8v2
	c0,1.3-0.3,2.3-0.8,3.1S92,671.3,90.9,671.5z M103.5,668.3c-1,0-1.9-0.2-2.7-0.5c-0.8-0.4-1.6-0.8-2.2-1.5c-0.6-0.6-1-1.4-1.3-2.3
	l2.4-0.9c0.3,0.8,0.8,1.5,1.5,2c0.7,0.5,1.4,0.7,2.3,0.7c0.7,0,1.3-0.1,1.8-0.4c0.5-0.3,0.9-0.7,1.2-1.2c0.3-0.5,0.5-1.1,0.5-1.8
	c0-0.7-0.2-1.3-0.5-1.8c-0.3-0.5-0.7-0.9-1.2-1.1c-0.5-0.3-1.1-0.4-1.8-0.4c-0.3,0-0.6,0-0.9,0.1c-0.3,0-0.5,0.1-0.8,0.2l-0.6-1.3
	l4.7-5.5h-7.6v-2.4h10.8v2.3l-4.6,5.5l-0.1-0.9c1.1,0,2,0.3,2.8,0.7c0.8,0.4,1.4,1.1,1.9,1.9c0.5,0.8,0.7,1.7,0.7,2.7
	c0,1.1-0.3,2.1-0.8,3c-0.5,0.9-1.3,1.6-2.3,2.1C105.9,668,104.8,668.3,103.5,668.3z M118.3,668.3c-0.9,0-1.8-0.2-2.7-0.5
	c-0.8-0.4-1.6-0.8-2.2-1.5c-0.6-0.6-1-1.4-1.3-2.3l2.4-0.9c0.3,0.8,0.8,1.5,1.5,1.9c0.7,0.4,1.4,0.7,2.3,0.7c0.7,0,1.3-0.2,1.8-0.5
	s0.9-0.7,1.2-1.2c0.3-0.5,0.5-1.1,0.5-1.8c0-0.7-0.2-1.3-0.5-1.8c-0.3-0.5-0.7-0.9-1.2-1.2c-0.5-0.3-1.1-0.5-1.8-0.5
	s-1.3,0.2-1.8,0.5s-1,0.7-1.2,1.2L113,660l1.4-9.8h9.5v2.4h-8.4l1.1-1.2l-1,7.5l-0.9-0.6c0.5-0.7,1.1-1.2,1.8-1.5
	c0.7-0.3,1.5-0.5,2.4-0.5c1.2,0,2.2,0.3,3,0.8c0.9,0.5,1.6,1.2,2,2.1c0.5,0.9,0.7,1.9,0.7,3c0,1.1-0.3,2.2-0.8,3.1
	c-0.5,0.9-1.3,1.6-2.2,2.2C120.6,668,119.5,668.3,118.3,668.3z M133.5,668.3c-1.2,0-2.3-0.2-3.3-0.7c-0.9-0.5-1.6-1.2-2.2-2
	c-0.5-0.8-0.8-1.8-0.8-2.8c0-1.2,0.3-2.1,0.9-3c0.6-0.8,1.5-1.5,2.7-1.8l-0.1,0.7c-0.8-0.3-1.5-0.9-2-1.6c-0.5-0.8-0.7-1.6-0.7-2.5
	c0-0.9,0.2-1.7,0.7-2.4c0.5-0.7,1.1-1.3,1.9-1.7c0.8-0.4,1.8-0.6,2.8-0.6c1.1,0,2,0.2,2.8,0.6c0.8,0.4,1.5,1,1.9,1.7
	c0.5,0.7,0.7,1.5,0.7,2.5c0,0.9-0.2,1.8-0.7,2.5c-0.5,0.7-1.1,1.3-2,1.6l-0.1-0.7c1.2,0.4,2,1,2.7,1.8c0.6,0.8,1,1.8,1,3
	c0,1-0.3,1.9-0.8,2.8c-0.5,0.8-1.2,1.5-2.2,2C135.8,668,134.7,668.3,133.5,668.3z M133.5,665.9c0.7,0,1.3-0.1,1.8-0.4
	c0.5-0.3,0.9-0.6,1.2-1.1c0.3-0.5,0.4-1,0.4-1.6s-0.1-1.2-0.4-1.6s-0.7-0.8-1.2-1.1c-0.5-0.3-1.1-0.4-1.8-0.4
	c-0.7,0-1.3,0.1-1.8,0.4c-0.5,0.3-0.9,0.6-1.2,1.1c-0.3,0.5-0.4,1-0.4,1.6s0.1,1.2,0.4,1.6c0.3,0.5,0.7,0.8,1.2,1.1
	C132.2,665.8,132.8,665.9,133.5,665.9z M133.5,657.3c0.5,0,1-0.1,1.3-0.3c0.4-0.2,0.7-0.5,0.9-0.9c0.2-0.4,0.3-0.8,0.3-1.3
	c0-0.5-0.1-0.9-0.3-1.3c-0.2-0.4-0.5-0.7-0.9-0.9c-0.4-0.2-0.8-0.3-1.3-0.3c-0.5,0-0.9,0.1-1.3,0.3c-0.4,0.2-0.7,0.5-0.9,0.9
	c-0.2,0.4-0.3,0.8-0.3,1.3c0,0.5,0.1,0.9,0.3,1.3c0.2,0.4,0.5,0.7,0.9,0.9C132.6,657.2,133,657.3,133.5,657.3z"/>
<path class="st1" d="M54,681L54,681c5.5,0,10,4.5,10,10l0,0c0,5.5-4.5,10-10,10l0,0c-5.5,0-10-4.5-10-10l0,0
	C44,685.5,48.5,681,54,681z"/>
<path class="st2" d="M57.1,694.8l0.7-0.7l-6.6-6.6h6v-1h-7.7v7.7h1v-6L57.1,694.8z"/>
<path class="st12" d="M71.7,697v-3h-3v-1h3v-3h1.1v3h3v1h-3v3H71.7z M78.2,697l3.6-4.7l0.2-0.1c-0.1,0.2-0.3,0.4-0.5,0.5
	c-0.2,0.1-0.4,0.2-0.6,0.3c-0.2,0.1-0.5,0.1-0.7,0.1c-0.6,0-1.2-0.1-1.6-0.4c-0.5-0.3-0.9-0.7-1.2-1.2c-0.3-0.5-0.4-1.1-0.4-1.7
	c0-0.6,0.1-1.2,0.4-1.7c0.3-0.5,0.7-0.9,1.2-1.2c0.5-0.3,1.1-0.4,1.7-0.4c0.7,0,1.2,0.1,1.7,0.4c0.5,0.3,0.9,0.7,1.2,1.2
	c0.3,0.5,0.4,1.1,0.4,1.8c0,0.4,0,0.7-0.1,1.1c-0.1,0.4-0.2,0.7-0.4,1.1c-0.2,0.4-0.4,0.7-0.7,1.1l-2.9,3.9H78.2z M80.4,692
	c0.4,0,0.8-0.1,1.2-0.3c0.3-0.2,0.6-0.5,0.8-0.8c0.2-0.4,0.3-0.8,0.3-1.2c0-0.4-0.1-0.8-0.3-1.2c-0.2-0.4-0.5-0.6-0.8-0.8
	c-0.3-0.2-0.7-0.3-1.1-0.3c-0.4,0-0.8,0.1-1.1,0.3c-0.3,0.2-0.6,0.5-0.8,0.8c-0.2,0.3-0.3,0.7-0.3,1.2c0,0.4,0.1,0.8,0.3,1.2
	c0.2,0.3,0.5,0.6,0.8,0.8C79.6,691.9,79.9,692,80.4,692z M86.2,697l8.5-10.4h1.4L87.6,697H86.2z M87.7,691.9c-0.5,0-1-0.1-1.4-0.4
	c-0.4-0.3-0.7-0.6-1-1c-0.2-0.4-0.4-0.9-0.4-1.4c0-0.5,0.1-1,0.4-1.4c0.3-0.4,0.6-0.8,1-1c0.4-0.2,0.9-0.4,1.4-0.4s1,0.1,1.4,0.4
	c0.4,0.2,0.7,0.6,1,1c0.2,0.4,0.4,0.9,0.4,1.4c0,0.5-0.1,1-0.4,1.4c-0.2,0.4-0.6,0.7-1,1C88.7,691.7,88.2,691.9,87.7,691.9z
	 M87.7,690.9c0.3,0,0.6-0.1,0.9-0.2c0.3-0.2,0.4-0.4,0.6-0.6c0.1-0.3,0.2-0.6,0.2-0.8c0-0.3-0.1-0.6-0.2-0.8
	c-0.1-0.3-0.3-0.5-0.6-0.6c-0.2-0.2-0.5-0.3-0.9-0.3c-0.3,0-0.6,0.1-0.9,0.3c-0.3,0.2-0.5,0.4-0.6,0.6c-0.1,0.3-0.2,0.5-0.2,0.8
	c0,0.3,0.1,0.6,0.2,0.8c0.1,0.3,0.4,0.5,0.6,0.6C87.1,690.8,87.4,690.9,87.7,690.9z M94.5,697.2c-0.5,0-1-0.1-1.4-0.4
	c-0.4-0.3-0.7-0.6-1-1c-0.2-0.4-0.4-0.9-0.4-1.4c0-0.5,0.1-1,0.4-1.4c0.3-0.4,0.6-0.8,1-1c0.4-0.2,0.9-0.4,1.4-0.4s1,0.1,1.4,0.4
	c0.4,0.2,0.7,0.6,1,1c0.2,0.4,0.4,0.9,0.4,1.4c0,0.5-0.1,1-0.4,1.4c-0.2,0.4-0.6,0.7-1,1C95.4,697,95,697.2,94.5,697.2z M94.5,696.2
	c0.3,0,0.6-0.1,0.9-0.2c0.3-0.2,0.4-0.4,0.6-0.6c0.1-0.3,0.2-0.6,0.2-0.8c0-0.3-0.1-0.6-0.2-0.8c-0.1-0.3-0.3-0.5-0.6-0.6
	c-0.2-0.2-0.5-0.3-0.9-0.3c-0.3,0-0.6,0.1-0.9,0.3c-0.3,0.2-0.5,0.4-0.6,0.6c-0.1,0.3-0.2,0.5-0.2,0.8c0,0.3,0.1,0.6,0.2,0.8
	c0.1,0.3,0.3,0.5,0.6,0.6C93.9,696.1,94.1,696.2,94.5,696.2z"/>
<path class="st3" d="M105.9,697.1c-0.7,0-1.2-0.2-1.6-0.6c-0.4-0.4-0.5-1-0.5-1.7v-4.3h-1.4v-1.1h0.3c0.3,0,0.6-0.1,0.8-0.3
	c0.2-0.2,0.3-0.5,0.3-0.8v-0.6h1.1v1.7h1.7v1.1h-1.7v4.3c0,0.3,0,0.5,0.1,0.7c0.1,0.2,0.2,0.3,0.4,0.4c0.2,0.1,0.4,0.2,0.7,0.2
	c0.1,0,0.2,0,0.3,0c0.1,0,0.2,0,0.3,0v0.9c-0.1,0-0.2,0-0.4,0.1C106.1,697.1,106,697.1,105.9,697.1z M108.2,697v-10.6h1.1v4.6
	l-0.2-0.1c0.2-0.5,0.5-0.9,0.9-1.1c0.4-0.3,0.9-0.4,1.5-0.4c0.5,0,1,0.1,1.4,0.4c0.4,0.2,0.8,0.6,1,1c0.3,0.4,0.4,0.9,0.4,1.4v4.9
	h-1.1v-4.5c0-0.5-0.1-0.8-0.3-1.2s-0.4-0.6-0.7-0.7c-0.3-0.2-0.6-0.3-1-0.3c-0.4,0-0.7,0.1-1,0.3c-0.3,0.2-0.5,0.4-0.7,0.7
	c-0.2,0.3-0.3,0.7-0.3,1.1v4.5H108.2z M118.1,697.2c-0.5,0-0.9-0.1-1.3-0.3c-0.4-0.2-0.7-0.4-0.9-0.8c-0.2-0.3-0.3-0.7-0.3-1.1
	c0-0.4,0.1-0.7,0.3-1.1c0.2-0.3,0.4-0.6,0.8-0.8c0.4-0.2,0.8-0.4,1.4-0.5l2.9-0.5v1l-2.7,0.4c-0.5,0.1-0.9,0.3-1.2,0.5
	c-0.2,0.3-0.4,0.6-0.4,0.9c0,0.3,0.1,0.6,0.4,0.9c0.3,0.2,0.6,0.3,1,0.3c0.5,0,1-0.1,1.3-0.3c0.4-0.2,0.7-0.5,0.9-0.9
	c0.2-0.4,0.3-0.8,0.3-1.2v-1.9c0-0.4-0.2-0.8-0.5-1.1c-0.3-0.3-0.8-0.4-1.3-0.4c-0.5,0-0.9,0.1-1.2,0.3c-0.3,0.2-0.6,0.5-0.8,0.9
	l-1-0.5c0.1-0.3,0.4-0.6,0.7-0.9c0.3-0.3,0.7-0.5,1.1-0.6c0.4-0.2,0.8-0.2,1.2-0.2c0.6,0,1,0.1,1.5,0.3c0.4,0.2,0.8,0.5,1,0.9
	c0.2,0.4,0.4,0.8,0.4,1.3v5.2h-1v-1.5l0.2,0.2c-0.1,0.3-0.3,0.5-0.6,0.8c-0.3,0.2-0.6,0.4-1,0.5C119,697.1,118.6,697.2,118.1,697.2z
	 M123.7,697v-7.5h1v1.5l-0.2-0.1c0.2-0.5,0.5-0.9,0.9-1.1c0.4-0.3,0.9-0.4,1.5-0.4c0.5,0,1,0.1,1.4,0.4c0.4,0.2,0.8,0.6,1,1
	c0.3,0.4,0.4,0.9,0.4,1.4v4.9h-1.1v-4.5c0-0.5-0.1-0.8-0.3-1.2c-0.2-0.3-0.4-0.6-0.7-0.7c-0.3-0.2-0.6-0.3-1-0.3
	c-0.4,0-0.7,0.1-1,0.3c-0.3,0.2-0.5,0.4-0.7,0.7c-0.2,0.3-0.3,0.7-0.3,1.1v4.5H123.7z M133.5,697v-10.6h1.1V697H133.5z M138.6,697.2
	c-0.5,0-0.9-0.1-1.3-0.3c-0.4-0.2-0.7-0.4-0.9-0.8c-0.2-0.3-0.3-0.7-0.3-1.1c0-0.4,0.1-0.7,0.3-1.1c0.2-0.3,0.4-0.6,0.8-0.8
	c0.4-0.2,0.8-0.4,1.4-0.5l2.9-0.5v1l-2.7,0.4c-0.5,0.1-0.9,0.3-1.2,0.5c-0.2,0.3-0.4,0.6-0.4,0.9c0,0.3,0.1,0.6,0.4,0.9
	c0.3,0.2,0.6,0.3,1,0.3c0.5,0,1-0.1,1.3-0.3c0.4-0.2,0.7-0.5,0.9-0.9c0.2-0.4,0.3-0.8,0.3-1.2v-1.9c0-0.4-0.2-0.8-0.5-1.1
	c-0.3-0.3-0.8-0.4-1.3-0.4c-0.5,0-0.9,0.1-1.2,0.3c-0.3,0.2-0.6,0.5-0.8,0.9l-1-0.5c0.1-0.3,0.4-0.6,0.7-0.9
	c0.3-0.3,0.7-0.5,1.1-0.6c0.4-0.2,0.8-0.2,1.2-0.2c0.6,0,1,0.1,1.5,0.3c0.4,0.2,0.8,0.5,1,0.9c0.2,0.4,0.4,0.8,0.4,1.3v5.2h-1v-1.5
	l0.2,0.2c-0.1,0.3-0.3,0.5-0.6,0.8c-0.3,0.2-0.6,0.4-1,0.5C139.5,697.1,139.1,697.2,138.6,697.2z M146.8,697.2
	c-0.7,0-1.3-0.2-1.9-0.5s-0.9-0.9-1.2-1.5l0.9-0.4c0.2,0.5,0.5,0.8,0.9,1.1c0.4,0.3,0.8,0.4,1.3,0.4c0.4,0,0.8-0.1,1.1-0.3
	c0.3-0.2,0.5-0.5,0.5-0.9c0-0.3-0.1-0.5-0.2-0.6c-0.1-0.2-0.3-0.3-0.5-0.4c-0.2-0.1-0.4-0.1-0.5-0.2l-1.1-0.3
	c-0.7-0.2-1.2-0.5-1.5-0.8c-0.3-0.4-0.5-0.8-0.5-1.2c0-0.4,0.1-0.8,0.3-1.1c0.2-0.3,0.5-0.6,0.9-0.8c0.4-0.2,0.8-0.3,1.3-0.3
	c0.6,0,1.2,0.2,1.7,0.5c0.5,0.3,0.9,0.8,1.1,1.4l-0.9,0.4c-0.2-0.4-0.5-0.7-0.8-1c-0.3-0.2-0.7-0.4-1.2-0.4c-0.4,0-0.8,0.1-1,0.3
	c-0.3,0.2-0.4,0.5-0.4,0.8c0,0.3,0.1,0.5,0.2,0.6s0.3,0.3,0.4,0.3c0.2,0.1,0.3,0.1,0.5,0.2l1.2,0.4c0.6,0.2,1.1,0.5,1.4,0.8
	c0.3,0.4,0.5,0.8,0.5,1.3c0,0.4-0.1,0.8-0.3,1.1c-0.2,0.3-0.5,0.6-0.9,0.8C147.8,697.1,147.3,697.2,146.8,697.2z M153.9,697.1
	c-0.7,0-1.2-0.2-1.6-0.6c-0.4-0.4-0.5-1-0.5-1.7v-4.3h-1.4v-1.1h0.3c0.3,0,0.6-0.1,0.8-0.3c0.2-0.2,0.3-0.5,0.3-0.8v-0.6h1v1.7h1.7
	v1.1h-1.7v4.3c0,0.3,0,0.5,0.1,0.7c0.1,0.2,0.2,0.3,0.4,0.4c0.2,0.1,0.4,0.2,0.7,0.2c0.1,0,0.2,0,0.3,0c0.1,0,0.2,0,0.3,0v0.9
	c-0.1,0-0.2,0-0.4,0.1C154.1,697.1,154,697.1,153.9,697.1z M158.4,700.1c-0.1,0-0.3,0-0.5,0c-0.1,0-0.3-0.1-0.4-0.1v-1
	c0.1,0,0.2,0,0.4,0c0.1,0,0.3,0,0.4,0c0.5,0,0.8-0.1,1.1-0.3c0.2-0.2,0.5-0.6,0.7-1.1l0.5-1.1l0,0.9l-3.2-8h1.1l2.6,6.6h-0.3
	l2.6-6.6h1.2l-3.4,8.5c-0.2,0.4-0.3,0.7-0.6,1c-0.2,0.3-0.5,0.6-0.9,0.8C159.4,700,158.9,700.1,158.4,700.1z M168.8,697.2
	c-0.7,0-1.3-0.2-1.9-0.5c-0.6-0.3-1-0.8-1.3-1.4c-0.3-0.6-0.5-1.3-0.5-2c0-0.8,0.2-1.4,0.5-2c0.3-0.6,0.7-1,1.3-1.4
	c0.6-0.3,1.2-0.5,1.8-0.5c0.5,0,1,0.1,1.4,0.3c0.4,0.2,0.8,0.5,1.1,0.8c0.3,0.3,0.5,0.7,0.7,1.1c0.2,0.4,0.2,0.9,0.2,1.3
	c0,0.1,0,0.2,0,0.3c0,0.1,0,0.2,0,0.4h-6.3v-1h5.7L171,693c0.1-0.5,0-1-0.2-1.4c-0.2-0.4-0.5-0.7-0.9-1c-0.4-0.2-0.8-0.4-1.3-0.4
	s-0.9,0.1-1.3,0.4c-0.4,0.2-0.7,0.6-0.9,1c-0.2,0.4-0.3,0.9-0.3,1.5c0,0.6,0,1.1,0.3,1.6c0.2,0.4,0.6,0.8,1,1
	c0.4,0.2,0.9,0.4,1.3,0.4c0.6,0,1-0.1,1.4-0.4c0.4-0.3,0.7-0.6,0.9-1l0.9,0.5c-0.1,0.3-0.4,0.6-0.7,0.9c-0.3,0.3-0.7,0.5-1.1,0.7
	C169.8,697.1,169.3,697.2,168.8,697.2z M175.7,697.2c-0.5,0-0.9-0.1-1.3-0.3c-0.4-0.2-0.7-0.4-0.9-0.8c-0.2-0.3-0.3-0.7-0.3-1.1
	c0-0.4,0.1-0.7,0.3-1.1c0.2-0.3,0.4-0.6,0.8-0.8c0.4-0.2,0.8-0.4,1.4-0.5l2.9-0.5v1l-2.7,0.4c-0.5,0.1-0.9,0.3-1.2,0.5
	c-0.2,0.3-0.4,0.6-0.4,0.9c0,0.3,0.1,0.6,0.4,0.9c0.3,0.2,0.6,0.3,1,0.3c0.5,0,1-0.1,1.3-0.3c0.4-0.2,0.7-0.5,0.9-0.9
	c0.2-0.4,0.3-0.8,0.3-1.2v-1.9c0-0.4-0.2-0.8-0.5-1.1c-0.3-0.3-0.8-0.4-1.3-0.4c-0.5,0-0.9,0.1-1.2,0.3c-0.3,0.2-0.6,0.5-0.8,0.9
	l-1-0.5c0.1-0.3,0.4-0.6,0.7-0.9c0.3-0.3,0.7-0.5,1.1-0.6c0.4-0.2,0.8-0.2,1.2-0.2c0.6,0,1,0.1,1.5,0.3c0.4,0.2,0.8,0.5,1,0.9
	c0.2,0.4,0.4,0.8,0.4,1.3v5.2h-1.1v-1.5l0.2,0.2c-0.1,0.3-0.3,0.5-0.6,0.8c-0.3,0.2-0.6,0.4-1,0.5
	C176.6,697.1,176.2,697.2,175.7,697.2z M181.3,697v-7.5h1.1v1.2l-0.1-0.2c0.2-0.4,0.4-0.6,0.8-0.8c0.4-0.2,0.8-0.3,1.3-0.3h0.5v1
	h-0.7c-0.5,0-1,0.2-1.3,0.5c-0.3,0.3-0.5,0.8-0.5,1.4v4.6H181.3z"/>
<path class="st13" d="M351.4,694c3.6,0,6.6-3,6.2-6.6c-1.1-9.5-4.4-18.7-9.7-26.7c-6.6-9.9-16-17.6-26.9-22.1
	c-11-4.5-23-5.7-34.7-3.4c-11.6,2.3-22.3,8-30.7,16.4c-8.4,8.4-14.1,19.1-16.4,30.7c-2.3,11.6-1.1,23.7,3.4,34.7
	s12.2,20.3,22.1,26.9c8,5.4,17.2,8.7,26.7,9.7c3.6,0.4,6.6-2.6,6.6-6.2c0-3.6-3-6.6-6.6-7.1c-6.9-1-13.6-3.5-19.4-7.4
	c-7.7-5.1-13.7-12.5-17.2-21c-3.5-8.6-4.5-18-2.7-27c1.8-9.1,6.3-17.4,12.8-24c6.5-6.5,14.9-11,24-12.8c9.1-1.8,18.5-0.9,27,2.7
	c8.6,3.5,15.9,9.5,21,17.2c3.9,5.9,6.4,12.5,7.4,19.4C344.8,691,347.8,694,351.4,694z"/>
<path class="st14" d="M266.6,737.2c-2.1,2.9-1.5,7.1,1.7,8.9c8.3,4.8,17.7,7.5,27.4,7.9c11.9,0.5,23.6-2.6,33.7-8.8
	c10.1-6.2,18.2-15.2,23.2-26c4.1-8.8,5.9-18.4,5.5-27.9c-0.2-3.6-3.6-6.1-7.2-5.5c-3.6,0.6-6,4-6,7.6c0.1,7-1.4,13.9-4.3,20.3
	c-3.9,8.4-10.2,15.5-18.1,20.3c-7.9,4.8-17,7.2-26.3,6.8c-7-0.3-13.9-2.2-20.1-5.4C272.8,733.6,268.7,734.2,266.6,737.2z"/>
<path class="st10" d="M351.4,694c3.6,0,6.6-3,6.2-6.6c-0.6-5.6-2-11.1-4.2-16.4c-3-7.3-7.4-13.9-13-19.5c-5.6-5.6-12.2-10-19.5-13
	c-5.2-2.2-10.8-3.6-16.4-4.2c-3.6-0.4-6.6,2.6-6.6,6.2c0,3.6,3,6.6,6.6,7.1c3.9,0.6,7.7,1.6,11.3,3.1c5.7,2.4,10.8,5.8,15.2,10.1
	c4.3,4.3,7.8,9.5,10.1,15.2c1.5,3.6,2.5,7.4,3.1,11.3C344.8,691,347.8,694,351.4,694z"/>
<g>
	<path shape-rendering="crispEdges" class="st0" d="M225,8h150c4.4,0,8,3.6,8,8v137c0,4.4-3.6,8-8,8H225c-4.4,0-8-3.6-8-8V16
		C217,11.6,220.6,8,225,8z"/>
	<path class="st10" d="M296,76c8.8,0,16-7.2,16-16s-7.2-16-16-16s-16,7.2-16,16S287.2,76,296,76z"/>
	<path class="st15" d="M307.6,62.9c7.4,0,13.4-6,13.4-13.4S315,36,307.6,36c-7.4,0-13.4,6-13.4,13.4S300.2,62.9,307.6,62.9z"/>
	<path class="st10" d="M280.1,76h15.8l-9-8.5L280.1,76z"/>
	<path class="st16" d="M296,44c-0.2,0-0.5,0-0.7,0c-0.7,1.7-1.2,3.5-1.2,5.4c0,7.4,6,13.4,13.4,13.4c1.5,0,2.9-0.2,4.2-0.7
		c0.1-0.7,0.2-1.5,0.2-2.2C312,51.2,304.8,44,296,44z"/>
	<path class="st15" d="M321,36h-13.3l7.6,7.1L321,36z"/>
	<path class="st10" d="M279.8,121.1c-1,0-1.9-0.2-2.7-0.5c-0.8-0.4-1.6-0.9-2.1-1.5c-0.6-0.6-1-1.4-1.3-2.2l2.1-0.9
		c0.4,1,0.9,1.7,1.7,2.2c0.7,0.5,1.6,0.8,2.5,0.8c0.6,0,1-0.1,1.5-0.3c0.4-0.2,0.7-0.4,1-0.8c0.2-0.3,0.4-0.7,0.4-1.1
		c0-0.6-0.2-1-0.5-1.4s-0.8-0.6-1.4-0.8l-2.9-0.9c-1.2-0.4-2.1-0.9-2.7-1.7c-0.6-0.8-0.9-1.6-0.9-2.6c0-0.9,0.2-1.7,0.7-2.3
		c0.4-0.7,1-1.2,1.8-1.6c0.8-0.4,1.6-0.6,2.6-0.6c0.9,0,1.8,0.2,2.6,0.5c0.8,0.3,1.4,0.8,2,1.3c0.6,0.6,1,1.2,1.2,2l-2.1,0.9
		c-0.3-0.8-0.8-1.5-1.4-1.9c-0.6-0.4-1.4-0.7-2.2-0.7c-0.5,0-1,0.1-1.4,0.3c-0.4,0.2-0.7,0.4-0.9,0.8c-0.2,0.3-0.3,0.7-0.3,1.1
		c0,0.5,0.2,1,0.5,1.3c0.3,0.4,0.8,0.7,1.5,0.9l2.7,0.9c1.2,0.4,2.2,0.9,2.8,1.6c0.6,0.7,0.9,1.6,0.9,2.6c0,0.9-0.2,1.6-0.7,2.3
		c-0.4,0.7-1.1,1.2-1.9,1.6C281.7,120.9,280.8,121.1,279.8,121.1z M278.8,122.9v-19.8h1.7v19.8H278.8z M288.6,120.8l5.4-6.9l0.4,0.3
		c-0.2,0.2-0.4,0.4-0.7,0.5c-0.2,0.1-0.5,0.2-0.7,0.3c-0.3,0.1-0.5,0.1-0.8,0.1c-0.9,0-1.8-0.2-2.5-0.6c-0.7-0.4-1.3-1-1.8-1.8
		c-0.4-0.8-0.6-1.6-0.6-2.6c0-1,0.2-1.9,0.7-2.6s1.1-1.4,1.9-1.8s1.7-0.7,2.7-0.7c1,0,1.9,0.2,2.7,0.7c0.8,0.4,1.4,1.1,1.9,1.8
		c0.5,0.8,0.7,1.7,0.7,2.6c0,0.5-0.1,1.1-0.2,1.6c-0.1,0.5-0.3,1.1-0.6,1.6c-0.3,0.5-0.7,1.1-1.2,1.8l-4.4,5.7H288.6z M292.6,112.9
		c0.5,0,1-0.1,1.4-0.4c0.4-0.3,0.8-0.6,1-1c0.3-0.4,0.4-0.9,0.4-1.5c0-0.6-0.1-1.1-0.4-1.5c-0.3-0.4-0.6-0.8-1-1
		c-0.4-0.3-0.9-0.4-1.4-0.4c-0.5,0-1,0.1-1.4,0.4c-0.4,0.2-0.8,0.6-1,1c-0.3,0.4-0.4,0.9-0.4,1.5c0,0.6,0.1,1.1,0.4,1.5
		c0.3,0.4,0.6,0.8,1,1S292,112.9,292.6,112.9z M304.8,121.1c-1,0-1.9-0.2-2.7-0.7c-0.8-0.4-1.4-1.1-1.9-1.8
		c-0.4-0.8-0.7-1.7-0.7-2.7c0-0.5,0.1-1,0.2-1.6s0.3-1.1,0.6-1.6c0.3-0.6,0.7-1.2,1.2-1.8l4.4-5.7h3l-5.4,6.9l-0.4-0.3
		c0.2-0.2,0.4-0.4,0.6-0.5c0.2-0.1,0.5-0.2,0.7-0.3c0.3-0.1,0.5-0.1,0.8-0.1c0.9,0,1.8,0.2,2.5,0.7c0.7,0.4,1.3,1,1.7,1.8
		c0.4,0.7,0.7,1.6,0.7,2.6c0,1-0.2,1.9-0.7,2.6c-0.5,0.8-1.1,1.4-1.9,1.8C306.7,120.9,305.8,121.1,304.8,121.1z M304.8,118.9
		c0.5,0,1-0.1,1.4-0.4s0.8-0.6,1-1c0.3-0.4,0.4-1,0.4-1.5c0-0.6-0.1-1.1-0.4-1.5c-0.2-0.4-0.6-0.8-1-1c-0.4-0.3-0.9-0.4-1.4-0.4
		c-0.5,0-1,0.1-1.4,0.4c-0.4,0.2-0.8,0.6-1,1c-0.3,0.4-0.4,0.9-0.4,1.5c0,0.6,0.1,1.1,0.4,1.5c0.3,0.4,0.6,0.8,1,1
		C303.8,118.7,304.2,118.9,304.8,118.9z M316.1,120.8v-15.9h2.4v10.6l-0.9-0.2l5.7-5.9h3l-4.3,4.6l4.5,6.8h-2.7l-4-6l1.4-0.2
		l-3.4,3.6l0.8-1.6v4.2H316.1z"/>
</g>
<g>
	<path class="st10" d="M31,185h342c5.5,0,10,4.5,10,10v115c0,5.5-4.5,10-10,10H31c-5.5,0-10-4.5-10-10V195C21,189.5,25.5,185,31,185
		z"/>
</g>
<path class="st0" d="M57.2,237.3c-0.8,0-1.6-0.2-2.4-0.5c-0.7-0.3-1.4-0.7-1.9-1.3c-0.5-0.6-0.9-1.2-1.1-2l2.1-0.8
	c0.3,0.7,0.7,1.3,1.3,1.7c0.6,0.4,1.2,0.6,2,0.6c0.6,0,1.1-0.1,1.6-0.4c0.5-0.2,0.8-0.6,1.1-1c0.3-0.4,0.4-1,0.4-1.6
	c0-0.6-0.1-1.1-0.4-1.6c-0.3-0.4-0.6-0.8-1.1-1c-0.4-0.2-1-0.3-1.6-0.3c-0.3,0-0.5,0-0.8,0.1c-0.3,0-0.5,0.1-0.7,0.2l-0.5-1.2
	l4.1-4.9h-6.7v-2.1H62v2l-4,4.8l-0.1-0.8c0.9,0,1.8,0.2,2.5,0.6c0.7,0.4,1.3,0.9,1.7,1.6c0.4,0.7,0.6,1.5,0.6,2.4
	c0,1-0.2,1.9-0.7,2.7c-0.5,0.8-1.1,1.4-2,1.9C59.2,237,58.2,237.3,57.2,237.3z M64.9,237v-1.8l4.3-4.6c0.8-0.9,1.5-1.6,2-2.2
	c0.5-0.6,0.8-1.1,1.1-1.5c0.2-0.4,0.3-0.9,0.3-1.3c0-0.8-0.2-1.3-0.7-1.7c-0.5-0.4-1.1-0.6-1.8-0.6c-0.8,0-1.4,0.2-2,0.7
	c-0.5,0.4-0.9,1-1.1,1.8l-2.2-0.6c0.2-0.8,0.5-1.5,1-2.1c0.5-0.6,1.1-1.1,1.8-1.4c0.7-0.3,1.5-0.5,2.4-0.5c1,0,1.9,0.2,2.6,0.6
	c0.7,0.4,1.3,0.9,1.7,1.5c0.4,0.7,0.6,1.4,0.6,2.3c0,0.6-0.1,1.1-0.3,1.7c-0.2,0.5-0.5,1.1-1,1.7c-0.4,0.6-1,1.3-1.7,2l-3.8,4h7.1
	v2.1H64.9z M82.7,237.3c-1,0-1.9-0.2-2.7-0.7c-0.8-0.4-1.4-1.1-1.9-1.8c-0.4-0.8-0.7-1.7-0.7-2.7c0-0.5,0.1-1,0.2-1.6
	s0.3-1.1,0.6-1.6c0.3-0.6,0.7-1.2,1.2-1.8l4.4-5.7h3l-5.4,6.9l-0.4-0.3c0.2-0.2,0.4-0.4,0.6-0.5c0.2-0.1,0.5-0.2,0.7-0.3
	c0.3-0.1,0.5-0.1,0.8-0.1c0.9,0,1.8,0.2,2.5,0.7c0.7,0.4,1.3,1,1.7,1.8c0.4,0.7,0.7,1.6,0.7,2.6c0,1-0.2,1.9-0.7,2.6
	c-0.5,0.8-1.1,1.4-1.9,1.8C84.7,237,83.7,237.3,82.7,237.3z M82.7,235c0.5,0,1-0.1,1.4-0.4s0.8-0.6,1-1c0.3-0.4,0.4-1,0.4-1.5
	c0-0.6-0.1-1.1-0.4-1.5c-0.2-0.4-0.6-0.8-1-1c-0.4-0.3-0.9-0.4-1.4-0.4c-0.5,0-1,0.1-1.4,0.4c-0.4,0.2-0.8,0.6-1,1
	c-0.3,0.4-0.4,0.9-0.4,1.5c0,0.6,0.1,1.1,0.4,1.5c0.3,0.4,0.6,0.8,1,1C81.7,234.9,82.2,235,82.7,235z M90.6,237l6.7-13.5h-7.5v-2.1
	h10.1v2.1L93.3,237H90.6z"/>
<path class="st17" d="M319,218.5h24c4.4,0,8,3.6,8,8v24c0,4.4-3.6,8-8,8h-24c-4.4,0-8-3.6-8-8v-24C311,222.1,314.6,218.5,319,218.5z
	"/>
<path class="st0" d="M321,248.3l1.8-6c-0.3-0.7-0.6-1.4-0.7-2.1c-0.2-0.7-0.3-1.4-0.3-2.2c0-1.3,0.2-2.6,0.8-3.7
	c0.5-1.2,1.2-2.2,2-3c0.9-0.8,1.9-1.5,3-2c1.2-0.5,2.4-0.8,3.7-0.8c1.3,0,2.6,0.2,3.7,0.8c1.2,0.5,2.2,1.2,3,2c0.9,0.9,1.5,1.9,2,3
	c0.5,1.2,0.8,2.4,0.8,3.7s-0.2,2.6-0.8,3.7c-0.5,1.2-1.2,2.2-2,3c-0.9,0.8-1.9,1.5-3,2c-1.2,0.5-2.4,0.8-3.7,0.8
	c-0.8,0-1.5-0.1-2.2-0.3c-0.7-0.2-1.4-0.4-2.1-0.7L321,248.3z M323.2,246.1l3.2-0.9c0.2-0.1,0.5-0.1,0.7-0.1c0.2,0,0.5,0.1,0.7,0.2
	c0.5,0.3,1.1,0.5,1.7,0.6s1.2,0.2,1.8,0.2c2.2,0,4.1-0.8,5.7-2.3c1.5-1.6,2.3-3.4,2.3-5.7s-0.8-4.1-2.3-5.7
	c-1.6-1.6-3.4-2.3-5.7-2.3s-4.1,0.8-5.7,2.3c-1.6,1.6-2.3,3.4-2.3,5.7c0,0.6,0.1,1.2,0.2,1.8c0.1,0.6,0.3,1.1,0.6,1.7
	c0.1,0.2,0.2,0.4,0.2,0.7c0,0.2,0,0.5-0.1,0.7L323.2,246.1z"/>
<path class="st18" d="M54,281h294c1.7,0,3,1.3,3,3l0,0c0,1.7-1.3,3-3,3H54c-1.7,0-3-1.3-3-3l0,0C51,282.3,52.3,281,54,281z"/>
<path class="st0" d="M54,281h189c1.7,0,3,1.3,3,3l0,0c0,1.7-1.3,3-3,3H54c-1.7,0-3-1.3-3-3l0,0C51,282.3,52.3,281,54,281z"/>
<path class="st0" d="M217.4,253h35c2.2,0,4,1.8,4,4v12c0,2.2-1.8,4-4,4h-35c-2.2,0-4-1.8-4-4v-12C213.4,254.8,215.2,253,217.4,253z"
	/>
<path class="st10" d="M225,267.6c-0.6,0-1.1-0.1-1.6-0.4c-0.5-0.3-0.8-0.6-1.1-1.1c-0.3-0.4-0.4-1-0.4-1.5c0-0.3,0-0.6,0.1-0.9
	c0.1-0.3,0.2-0.6,0.3-0.9c0.2-0.3,0.4-0.7,0.7-1l2.5-3.3h1.7l-3.1,4l-0.2-0.2c0.1-0.1,0.2-0.2,0.4-0.3c0.1-0.1,0.3-0.1,0.4-0.2
	c0.2,0,0.3,0,0.5,0c0.5,0,1,0.1,1.4,0.4c0.4,0.2,0.8,0.6,1,1c0.2,0.4,0.4,0.9,0.4,1.5c0,0.6-0.1,1.1-0.4,1.5c-0.3,0.4-0.6,0.8-1.1,1
	C226.1,267.5,225.6,267.6,225,267.6z M225,266.4c0.3,0,0.6-0.1,0.8-0.2c0.2-0.1,0.4-0.3,0.6-0.6c0.1-0.3,0.2-0.5,0.2-0.9
	c0-0.3-0.1-0.6-0.2-0.9c-0.1-0.2-0.3-0.4-0.6-0.6c-0.2-0.1-0.5-0.2-0.8-0.2c-0.3,0-0.6,0.1-0.8,0.2c-0.2,0.1-0.4,0.3-0.6,0.6
	c-0.1,0.2-0.2,0.5-0.2,0.9c0,0.3,0.1,0.6,0.2,0.9c0.1,0.2,0.3,0.4,0.6,0.6C224.4,266.3,224.7,266.4,225,266.4z M232.2,267.6
	c-0.5,0-0.9-0.1-1.3-0.3c-0.4-0.2-0.8-0.4-1.1-0.7c-0.3-0.3-0.5-0.7-0.6-1.1l1.2-0.5c0.2,0.4,0.4,0.7,0.7,1s0.7,0.3,1.1,0.3
	c0.3,0,0.6-0.1,0.9-0.2c0.3-0.2,0.5-0.4,0.6-0.6c0.2-0.3,0.2-0.6,0.2-0.9c0-0.3-0.1-0.6-0.2-0.9c-0.1-0.3-0.3-0.5-0.6-0.6
	c-0.3-0.2-0.6-0.2-0.9-0.2s-0.6,0.1-0.9,0.2s-0.5,0.4-0.6,0.6l-1.1-0.3l0.7-4.9h4.8v1.2h-4.2l0.5-0.6l-0.5,3.8l-0.4-0.3
	c0.2-0.3,0.5-0.6,0.9-0.7c0.3-0.2,0.7-0.2,1.2-0.2c0.6,0,1.1,0.1,1.5,0.4c0.4,0.3,0.8,0.6,1,1.1c0.2,0.4,0.4,0.9,0.4,1.5
	c0,0.6-0.1,1.1-0.4,1.5s-0.6,0.8-1.1,1.1C233.3,267.5,232.8,267.6,232.2,267.6z M237.8,267.5l7.3-8.9h1.5l-7.3,8.9H237.8z
	 M239.2,263.1c-0.4,0-0.8-0.1-1.2-0.3c-0.4-0.2-0.6-0.5-0.9-0.9c-0.2-0.4-0.3-0.7-0.3-1.2c0-0.4,0.1-0.8,0.3-1.2
	c0.2-0.4,0.5-0.6,0.9-0.9s0.7-0.3,1.2-0.3s0.8,0.1,1.2,0.3c0.4,0.2,0.6,0.5,0.8,0.9c0.2,0.4,0.3,0.7,0.3,1.2c0,0.4-0.1,0.8-0.3,1.2
	c-0.2,0.4-0.5,0.6-0.8,0.9C240,263,239.6,263.1,239.2,263.1z M239.2,262c0.2,0,0.5-0.1,0.6-0.2c0.2-0.1,0.3-0.3,0.4-0.5
	c0.1-0.2,0.1-0.4,0.1-0.6c0-0.2,0-0.4-0.1-0.6c-0.1-0.2-0.2-0.3-0.4-0.5c-0.2-0.1-0.4-0.2-0.6-0.2c-0.2,0-0.5,0.1-0.6,0.2
	c-0.2,0.1-0.3,0.3-0.4,0.5c-0.1,0.2-0.1,0.4-0.1,0.6c0,0.2,0,0.4,0.1,0.6c0.1,0.2,0.2,0.3,0.4,0.5S238.9,262,239.2,262z
	 M245.1,267.6c-0.4,0-0.8-0.1-1.2-0.3c-0.4-0.2-0.6-0.5-0.8-0.9c-0.2-0.4-0.3-0.7-0.3-1.2c0-0.4,0.1-0.8,0.3-1.2
	c0.2-0.4,0.5-0.6,0.8-0.9c0.4-0.2,0.8-0.3,1.2-0.3c0.4,0,0.8,0.1,1.2,0.3c0.4,0.2,0.6,0.5,0.8,0.9c0.2,0.4,0.3,0.7,0.3,1.2
	c0,0.4-0.1,0.8-0.3,1.2c-0.2,0.4-0.5,0.6-0.8,0.9C246,267.5,245.6,267.6,245.1,267.6z M245.1,266.6c0.2,0,0.5-0.1,0.6-0.2
	c0.2-0.1,0.3-0.3,0.4-0.5c0.1-0.2,0.2-0.4,0.2-0.6c0-0.2-0.1-0.4-0.2-0.6c-0.1-0.2-0.2-0.3-0.4-0.5c-0.2-0.1-0.4-0.2-0.6-0.2
	c-0.2,0-0.5,0.1-0.6,0.2c-0.2,0.1-0.3,0.3-0.4,0.5c-0.1,0.2-0.1,0.4-0.1,0.6c0,0.2,0,0.4,0.1,0.6c0.1,0.2,0.2,0.3,0.4,0.5
	C244.7,266.5,244.9,266.6,245.1,266.6z"/>
<path class="st0" d="M234.9,277l4-4h-8L234.9,277z"/>
</svg>
